<svg width="93" height="83" viewBox="0 0 93 83" fill="none" xmlns="http://www.w3.org/2000/svg">
<path fill-rule="evenodd" clip-rule="evenodd" d="M2.50455 2.69326C0.254602 5.09032 0 6.61918 0 17.7086C0 29.8092 0.0910119 30.2358 4.59782 39.206C7.12656 44.24 10.2037 48.8981 11.4341 49.5576C14.4697 51.1833 77.694 51.1833 80.7296 49.5576C81.96 48.8981 85.0371 44.24 87.5659 39.206C92.0842 30.2127 92.1637 29.8369 92.1637 17.5472C92.1637 -1.41944 95.9746 0.025249 45.9205 0.025249H5.01025L2.50455 2.69326ZM77.1871 36.9208L74.8357 41.5328H46.0818H17.3279L14.9766 36.9208L12.6253 32.3089H46.0818H79.5384L77.1871 36.9208ZM24.4234 61.3641C21.8958 63.8938 22.769 67.9396 26.019 68.7559C30.0327 69.7637 32.816 66.978 31.8091 62.961C30.9935 59.7085 26.951 58.8345 24.4234 61.3641ZM42.8561 61.3641C40.3285 63.8938 41.2018 67.9396 44.4517 68.7559C48.4654 69.7637 51.2488 66.978 50.2419 62.961C49.4262 59.7085 45.3837 58.8345 42.8561 61.3641ZM61.2888 61.3641C58.7612 63.8938 59.6345 67.9396 62.8844 68.7559C66.8981 69.7637 69.6815 66.978 68.6746 62.961C67.859 59.7085 63.8164 58.8345 61.2888 61.3641ZM15.207 75.2C12.6794 77.7296 13.5527 81.7755 16.8026 82.5918C20.8163 83.5995 23.5997 80.8139 22.5928 76.7969C21.7771 73.5443 17.7346 72.6703 15.207 75.2ZM42.8561 75.2C40.3285 77.7296 41.2018 81.7755 44.4517 82.5918C48.4654 83.5995 51.2488 80.8139 50.2419 76.7969C49.4262 73.5443 45.3837 72.6703 42.8561 75.2ZM70.5052 75.2C67.9776 77.7296 68.8509 81.7755 72.1008 82.5918C76.1145 83.5995 78.8979 80.8139 77.891 76.7969C77.0753 73.5443 73.0328 72.6703 70.5052 75.2Z" fill="#2B3226"/>
</svg>
