<svg width="120" height="82" viewBox="0 0 120 82" fill="none" xmlns="http://www.w3.org/2000/svg">
<path d="M104.2 0C106.342 0 107.873 1.7289 108.78 3.57715C109.735 5.52182 110.285 8.10572 110.285 10.8779V37.6777H112.957C116.819 37.6777 119.958 40.8123 119.958 44.6777V67.6885C119.959 67.7073 119.961 67.7261 119.961 67.7451V80.0186C119.961 80.826 119.306 81.4803 118.499 81.4805H111.251C110.443 81.4805 109.789 80.8261 109.789 80.0186V69.2051H10.1719V80.0186C10.1719 80.826 9.51734 81.4803 8.70996 81.4805H1.46191C0.654378 81.4805 0 80.8261 0 80.0186V44.6777C0.000371526 40.8123 3.13764 37.6778 7 37.6777H9.65527V10.8779C9.65535 8.10572 10.2053 5.52182 11.1602 3.57715C12.0678 1.72888 13.5983 0 15.7402 0H104.2ZM2.92383 66.2803H117.033V62.7646H2.92383V66.2803ZM15.7402 2.92383C15.3327 2.92383 14.5515 3.30557 13.7852 4.86621C13.0661 6.33058 12.5792 8.45508 12.5791 10.8779V37.6611H19.3281C19.1299 37.1476 19.0196 36.5903 19.0195 36.0078V29.7451C19.0197 27.2112 21.0736 25.1543 23.6084 25.1543H50.9229C53.4576 25.1544 55.5116 27.2112 55.5117 29.7451V36.0078C55.5117 36.5903 55.4014 37.1476 55.2031 37.6611H64.7666C64.5684 37.1476 64.4581 36.5903 64.458 36.0078V29.7451C64.4582 27.2112 66.5121 25.1543 69.0469 25.1543H96.3613C98.8961 25.1544 100.95 27.2112 100.95 29.7451V36.0078C100.95 36.5903 100.84 37.1476 100.642 37.6611H107.361V10.8779C107.361 8.45508 106.874 6.33058 106.155 4.86621C105.389 3.30562 104.608 2.92383 104.2 2.92383H15.7402ZM23.6084 28.0781C22.6909 28.0781 21.9435 28.824 21.9434 29.7451V36.0078C21.9435 36.8538 22.573 37.5498 23.3818 37.6611H51.1494C51.958 37.5497 52.5867 36.8537 52.5869 36.0078V29.7451C52.5868 28.8241 51.8403 28.0782 50.9229 28.0781H23.6084ZM69.0469 28.0781C68.1294 28.0781 67.382 28.824 67.3818 29.7451V36.0078C67.382 36.8538 68.0115 37.5498 68.8203 37.6611H96.5879C97.3965 37.5497 98.0252 36.8537 98.0254 36.0078V29.7451C98.0252 28.8241 97.2787 28.0782 96.3613 28.0781H69.0469Z" fill="#2B3226"/>
</svg>
