<svg width="93" height="74" viewBox="0 0 93 74" fill="none" xmlns="http://www.w3.org/2000/svg">
<path fill-rule="evenodd" clip-rule="evenodd" d="M39.9034 2.14542C36.3954 4.45946 32.2723 9.96498 32.2607 12.3517C32.2469 14.7925 41.1476 14.0996 44.8342 11.3728C47.4966 9.40232 48.5541 9.19247 50.5207 10.2463C58.259 14.3901 54.5309 23.0168 45.0012 23.0168C41.6833 23.0168 41.469 23.2808 41.469 27.3693V31.7218L22.8727 40.9169C2.92966 50.7784 0.0080722 53.3207 7.87588e-06 60.8278C-0.00344826 63.6031 1.13017 65.8525 4.21304 69.187L8.42953 73.7482H46.0772H83.7249L87.9414 69.187C92.6521 64.0908 93.3503 59.7971 90.3964 54.0794C89.0036 51.3849 84.8459 48.7699 70.6135 41.6364L52.5944 32.605L56.327 30.4051C67.0514 24.0868 67.3336 9.05758 56.8592 2.14542C52.5241 -0.71514 44.2386 -0.71514 39.9034 2.14542ZM63.9005 49.2184C73.7137 54.1163 82.0222 58.8516 82.3621 59.7406C84.074 64.2038 81.6386 64.5243 46.0772 64.5243C10.5159 64.5243 8.08046 64.2038 9.7924 59.7406C10.2313 58.5933 42.7478 41.0991 45.78 40.3773C45.9332 40.3416 54.0874 44.3194 63.9005 49.2184Z" fill="#2B3226"/>
</svg>
