<svg width="102" height="84" viewBox="0 0 102 84" fill="none" xmlns="http://www.w3.org/2000/svg">
<path fill-rule="evenodd" clip-rule="evenodd" d="M0 32.7506V65.5012L4.89619 64.9489C22.0029 63.0188 32.8045 58.3434 40.8504 49.387L46.0818 43.5645V31.0061V18.4478H36.8655H27.6491V9.2239V0H13.8245H0V32.7506ZM72.8669 9.49139C67.3889 12.6506 64.5146 15.0211 64.5146 16.3782C64.5146 17.6787 65.3705 18.4478 66.8186 18.4478C68.8612 18.4478 69.1227 19.2168 69.1227 25.2262C69.1227 31.6576 68.9476 32.0761 65.6954 33.4251C61.7612 35.0554 55.8316 41.3646 48.3882 51.8406C39.3619 64.5442 29.5776 70.1316 12.1011 72.5644C1.79719 73.9987 0 75.0583 0 79.6968V83.0151H50.69H101.38V57.6493C101.38 33.0527 101.31 32.2836 99.0759 32.2836C97.0276 32.2836 96.7718 31.5146 96.7718 25.3657C96.7718 19.2168 97.0276 18.4478 99.0759 18.4478C100.528 18.4478 101.38 17.6787 101.38 16.3713C101.38 14.259 86.044 4.57966 82.7975 4.64308C81.9289 4.65922 77.4601 6.84182 72.8669 9.49139ZM18.4327 13.8358V18.4478H13.8245H9.21637V13.8358V9.2239H13.8245H18.4327V13.8358ZM87.5555 27.6717V32.2836H82.9473H78.3391V27.6717V23.0597H82.9473H87.5555V27.6717ZM18.4327 32.2836V36.8956H13.8245H9.21637V32.2836V27.6717H13.8245H18.4327V32.2836ZM36.8655 32.2836V36.8956H32.2573H27.6491V32.2836V27.6717H32.2573H36.8655V32.2836Z" fill="#2B3226"/>
</svg>
