<svg width="89" height="89" viewBox="0 0 89 89" fill="none" xmlns="http://www.w3.org/2000/svg">
<path fill-rule="evenodd" clip-rule="evenodd" d="M13.3243 5.29653C11.7003 8.21013 8.24073 14.566 5.63696 19.4206L0.902196 28.2482H24.2222H47.5412L42.7923 19.4206C40.1805 14.566 36.7088 8.21013 35.0768 5.29653L32.1091 0H24.193H16.2768L13.3243 5.29653ZM0 62.5495V88.78H44.3538H88.7075V62.5495V36.3191H44.3538H0V62.5495ZM80.6432 50.4432V56.4964H64.5146H48.3859V50.4432V44.39H64.5146H80.6432V50.4432ZM32.2573 56.4964V60.5318H24.193H16.1286V56.4964V52.4609H24.193H32.2573V56.4964ZM80.6432 72.6382V80.7091H64.5146H48.3859V72.6382V64.5673H64.5146H80.6432V72.6382Z" fill="#2B3226"/>
</svg>
