<svg width="86" height="86" viewBox="0 0 86 86" fill="none" xmlns="http://www.w3.org/2000/svg">
<path fill-rule="evenodd" clip-rule="evenodd" d="M20.996 10.6258C9.44873 16.4358 0 21.4499 0 21.7674C0 22.0849 4.19921 24.4042 9.33157 26.9216C14.4639 29.439 18.6631 31.7738 18.6631 32.1101C18.6631 32.4463 14.4639 34.7811 9.33157 37.2985C4.19921 39.8159 0 42.1414 0 42.4662C0 42.791 4.54862 45.3364 10.1092 48.1226L20.2184 53.1886L10.1341 57.9547C4.58699 60.577 0.0383633 62.9605 0.0248844 63.2521C0.0114054 63.5447 9.56486 68.563 21.2552 74.4042L42.5105 85.0259L63.7657 74.4042C75.4561 68.563 85.021 63.524 85.021 63.2065C85.021 62.8889 80.8218 60.5697 75.6894 58.0523C70.5571 55.5348 66.3578 53.2 66.3578 52.8638C66.3578 52.5276 70.5571 50.1928 75.6894 47.6754C80.8218 45.1579 85.021 42.8232 85.021 42.4869C85.021 42.1507 80.8218 39.8159 75.6894 37.2985C70.5571 34.7811 66.3578 32.4463 66.3578 32.1101C66.3578 31.7738 70.5571 29.439 75.6894 26.9216C80.8218 24.4042 85.021 22.0849 85.021 21.7674C85.021 21.2673 42.918 -0.156862 42.2451 0.000866643C42.1061 0.033035 32.5444 4.8147 20.996 10.6258ZM36.3195 40.4261L42.5105 43.5547L48.7025 40.4261L54.8956 37.2975L59.5893 39.5804C62.1721 40.836 64.2842 42.13 64.2842 42.4568C64.2842 42.7837 59.3851 45.49 53.3973 48.4702L42.5105 53.8891L31.6237 48.4702C25.6359 45.49 20.7368 42.7827 20.7368 42.4548C20.7368 41.993 28.4654 37.669 29.8393 37.3628C29.9979 37.3276 32.9135 38.7056 36.3195 40.4261Z" fill="#2B3226"/>
</svg>
