<svg width="84" height="93" viewBox="0 0 84 93" fill="none" xmlns="http://www.w3.org/2000/svg">
<path fill-rule="evenodd" clip-rule="evenodd" d="M50.5725 2.61153C47.3848 4.73187 43.0278 11.0975 41.2306 16.2594C41.0474 16.7852 37.3355 15.4201 32.9831 13.2248C18.927 6.13506 8.2498 8.36609 2.5921 19.5743C1.16702 22.3991 0 26.3273 0 28.3035V31.8986L6.62426 28.6148C15.0941 24.4157 23.7344 23.2811 28.3207 25.7658L31.6813 27.5875L28.2251 27.6452C23.9464 27.7155 14.4697 32.0554 9.59424 36.175C4.93191 40.1147 0 49.9739 0 55.3515C0 59.5921 4.59666 70.2446 7.44913 72.614C8.73481 73.6816 9.27397 72.735 10.3569 67.5132C12.078 59.2151 18.4569 49.7618 26.3277 43.8423C32.9566 38.858 36.2261 37.9068 35.316 41.2274C35.0118 42.3365 34.1351 46.0987 33.369 49.5865C31.0154 60.2989 24.5708 71.1093 13.9294 82.1941L4.21073 92.3185L19.0975 91.9945L33.9853 91.6705L37.6811 84.1761C41.8239 75.7755 44.5243 63.9135 45.659 49.1392C46.0784 43.6775 46.932 39.2096 47.5553 39.2096C48.1797 39.2096 50.3974 41.021 52.4837 43.2359C57.5493 48.6111 61.6091 59.5783 63.957 74.2282L64.6712 78.6925L68.1136 75.3915C70.0064 73.5767 73.1526 68.8449 75.1042 64.8774C78.0764 58.8346 78.5373 56.8158 77.9393 52.4517C77.5465 49.5854 76.4382 45.7171 75.4763 43.855C71.8807 36.8956 60.0204 27.7386 54.4802 27.6452C52.5609 27.6117 52.5678 27.523 54.5862 26.3492C57.3627 24.735 66.6769 25.8131 71.6526 28.3231C73.7459 29.3793 77.2055 31.872 79.3414 33.8621L83.2238 37.4802L82.6697 31.3417C82.0856 24.8503 79.7941 20.7999 74.4417 16.7979C71.8646 14.8701 69.5582 14.4204 62.245 14.4204C54.0782 14.4204 53.327 14.2336 54.2844 12.4384C55.6104 9.9526 64.5537 4.63272 67.4961 4.58199C69.496 4.5474 69.4488 4.33525 66.9788 2.27601C63.1851 -0.887784 55.6 -0.732131 50.5725 2.61153Z" fill="#2B3226"/>
</svg>
