<svg width="106" height="99" viewBox="0 0 106 99" fill="none" xmlns="http://www.w3.org/2000/svg">
<path d="M10.2167 51.71H95.3776C94.1768 38.2303 84.5393 11.8953 55.8046 10.057C54.5831 9.97889 53.3272 9.94502 52.0359 9.95827C51.1031 9.96785 50.1897 10.0011 49.2953 10.057C19.8204 11.8997 10.9391 38.3341 10.2167 51.71Z" fill="#2B3226"/>
<path d="M10.2167 51.71H6.14129C4.88263 51.71 3.70731 52.3393 3.00953 53.3869C2.2039 54.5963 2.16667 56.1615 2.91388 57.4079L2.97541 57.5105C3.6895 58.7016 4.97637 59.4305 6.36515 59.4305H26.9646M10.2167 51.71H95.3776M10.2167 51.71C10.9391 38.3341 19.8204 11.8997 49.2953 10.057M95.3776 51.71H99.0014C100.285 51.71 101.48 52.3648 102.17 53.4467C102.924 54.6271 102.959 56.1284 102.261 57.3426L102.202 57.4455C101.497 58.6735 100.189 59.4305 98.7725 59.4305H84.1108M95.3776 51.71C94.1768 38.2303 84.5393 11.8953 55.8046 10.057M49.2953 10.057C50.1897 10.0011 51.1031 9.96785 52.0359 9.95827C53.3272 9.94502 54.5831 9.97889 55.8046 10.057M49.2953 10.057L48.789 9.15267C47.4195 6.70652 47.9058 3.44725 50.6079 2.70038C51.8844 2.34755 53.3115 2.23963 54.7788 2.60435C57.4891 3.27804 57.8287 6.66803 56.3967 9.06566L55.8046 10.057M12.1452 73.3479C15.4948 68.7088 23.1481 59.4305 26.9646 59.4305M12.1452 73.3479L29.1977 84.5223M12.1452 73.3479C11.0964 72.5352 8.63323 71.3975 7.17159 73.3479C6.03443 74.8654 5.0693 76.6452 4.50563 77.8071C4.24323 78.348 3.84487 78.8571 3.78009 79.4548C3.72493 79.9636 3.9186 80.5929 4.73552 81.17C6.11596 82.1452 18.6414 90.99 24.7316 95.2904C25.4083 95.7645 27.0052 96.4282 27.9797 95.2904C28.9541 94.1527 31.1601 91.7011 32.3443 90.008C33.5285 88.3149 32.3646 86.5976 29.1977 84.5223M26.9646 59.4305C30.4039 59.6117 37.878 60.3906 42.9111 62.1128C44.0483 62.5019 45.2585 62.6778 46.4418 62.4666C50.9796 61.6569 57.949 60.2809 59.6486 59.4305M26.9646 59.4305H58.2275M59.6486 59.4305H58.2275M59.6486 59.4305H82.1822M58.2275 59.4305C61.0906 60.253 64.7637 62.4933 61.7282 65.8482C60.8116 66.8613 61.3597 68.8781 62.726 68.8781C62.8393 68.8781 62.9521 68.8635 63.0617 68.8346L71.0951 66.7142C71.782 66.5328 72.4316 66.2321 73.0142 65.8257L82.1822 59.4305M82.1822 59.4305H84.1108M84.1108 59.4305C86.107 59.9046 89.3077 61.5436 86.1408 64.3068C83.1278 66.9357 76.2006 72.5317 72.65 75.373C72.305 75.6491 71.935 75.885 71.5347 76.072C68.1297 77.6627 61.1128 80.3825 55.9945 80.4589C50.5539 80.5402 45.7427 80.0187 44.0171 79.7478C40.8705 79.0706 33.5014 79.0773 29.1977 84.5223" stroke="#2B3226" stroke-width="4.75575" stroke-linecap="round"/>
</svg>
