<svg width="83" height="93" viewBox="0 0 83 93" fill="none" xmlns="http://www.w3.org/2000/svg">
<path fill-rule="evenodd" clip-rule="evenodd" d="M36.8655 5.06507C36.8655 8.81574 36.3424 10.3377 34.8494 10.9315C33.7411 11.3719 26.6123 14.0572 19.0088 16.9005C2.4481 23.0909 0 25.0233 0 31.9078V36.8956H41.4736H82.9473V31.9078C82.9473 25.0233 80.4992 23.0909 63.9385 16.9005C56.335 14.0572 49.2062 11.3719 48.0979 10.9315C46.6049 10.3377 46.0818 8.81574 46.0818 5.06507V0H41.4736H36.8655V5.06507ZM38.0636 43.1817C36.2722 45.3412 36.8977 48.4128 39.4576 50.0258C43.4494 52.5416 47.9447 46.8724 44.8837 43.1817C43.1049 41.036 39.8424 41.036 38.0636 43.1817ZM28.8472 57.0175C25.7862 60.7082 30.2815 66.3775 34.2734 63.8616C36.8332 62.2486 37.4588 59.1771 35.6673 57.0175C33.8886 54.8718 30.626 54.8718 28.8472 57.0175ZM47.28 57.0175C45.4885 59.1771 46.1141 62.2486 48.6739 63.8616C52.6658 66.3775 57.1611 60.7082 54.1001 57.0175C52.3213 54.8718 49.0587 54.8718 47.28 57.0175ZM19.6309 70.8534C16.5699 74.5441 21.0652 80.2133 25.057 77.6975C29.0454 75.1828 27.6249 69.1792 23.0409 69.1792C21.9292 69.1792 20.3947 69.9321 19.6309 70.8534ZM38.0636 70.8534C35.0026 74.5441 39.4979 80.2133 43.4897 77.6975C47.4781 75.1828 46.0576 69.1792 41.4736 69.1792C40.3619 69.1792 38.8274 69.9321 38.0636 70.8534ZM56.4963 70.8534C53.4353 74.5441 57.9306 80.2133 61.9225 77.6975C65.9108 75.1828 64.4904 69.1792 59.9064 69.1792C58.7947 69.1792 57.2601 69.9321 56.4963 70.8534ZM10.4145 84.6892C7.35351 88.3799 11.8488 94.0491 15.8406 91.5333C19.829 89.0187 18.4085 83.0151 13.8245 83.0151C12.7128 83.0151 11.1783 83.768 10.4145 84.6892ZM28.8472 84.6892C25.7862 88.3799 30.2815 94.0491 34.2734 91.5333C38.2617 89.0187 36.8413 83.0151 32.2573 83.0151C31.1456 83.0151 29.611 83.768 28.8472 84.6892ZM47.28 84.6892C44.219 88.3799 48.7143 94.0491 52.7061 91.5333C56.6945 89.0187 55.274 83.0151 50.69 83.0151C49.5783 83.0151 48.0438 83.768 47.28 84.6892ZM65.7127 84.6892C62.6517 88.3799 67.147 94.0491 71.1388 91.5333C75.1272 89.0187 73.7067 83.0151 69.1227 83.0151C68.011 83.0151 66.4765 83.768 65.7127 84.6892Z" fill="#2B3226"/>
</svg>
