<svg width="93" height="93" viewBox="0 0 93 93" fill="none" xmlns="http://www.w3.org/2000/svg">
<path fill-rule="evenodd" clip-rule="evenodd" d="M25.072 1.76542C18.9972 5.06411 18.4327 7.8947 18.4327 35.0694V59.9163H21.2184C27.7804 59.9163 27.6491 60.4132 27.6491 35.6621C27.6491 10.8671 28.0569 9.18489 34.0671 9.18489C36.5636 9.18489 36.8655 8.68795 36.8655 4.57294C36.8655 0.00365361 36.8251 -0.039007 32.5453 0.0071125C30.1698 0.0324782 26.8058 0.823427 25.072 1.76542ZM71.1538 1.76542C66.7403 4.16248 64.5146 9.14223 64.5146 16.6217V23.0207H48.3859H32.2573V27.6327V32.2446H48.3859H64.5146V36.8566V41.4685H48.3859H32.2573V46.0805V50.6924H48.3859H64.5146V55.3044C64.5146 59.4136 64.8187 59.9163 67.3002 59.9163C73.8623 59.9163 73.7309 60.4132 73.7309 35.6621C73.7309 10.8671 74.1387 9.18489 80.149 9.18489C82.6454 9.18489 82.9473 8.68795 82.9473 4.57294C82.9473 0.00365361 82.907 -0.039007 78.6271 0.0071125C76.2516 0.0324782 72.8876 0.823427 71.1538 1.76542ZM6.40422 61.6827C5.17384 62.6131 3.23034 63.3753 2.08405 63.3753C0.382479 63.3753 0 64.3265 0 68.5637C0 74.2203 0.707356 74.6376 5.81783 71.9927C8.86384 70.4166 9.56889 70.4166 12.6149 71.9927C14.4847 72.96 18.139 73.7522 20.7368 73.7522C23.3347 73.7522 26.989 72.96 28.8587 71.9927C31.9048 70.4166 32.6098 70.4166 35.6558 71.9927C37.5256 72.96 41.1799 73.7522 43.7777 73.7522C46.3756 73.7522 50.0299 72.96 51.8997 71.9927C54.9457 70.4166 55.6507 70.4166 58.6967 71.9927C60.5665 72.96 64.2208 73.7522 66.8186 73.7522C69.4165 73.7522 73.0708 72.96 74.9406 71.9927C77.9866 70.4166 78.6916 70.4166 81.7376 71.9927C83.6074 72.96 86.7179 73.7522 88.6499 73.7522C91.9643 73.7522 92.1636 73.4973 92.1636 69.2682C92.1636 64.9964 91.9597 64.7473 87.8435 63.9944C85.468 63.5597 82.3574 62.4529 80.9312 61.5339C78.634 60.0535 77.9958 60.0881 75.3231 61.8406C71.3692 64.4337 62.2681 64.4337 58.3142 61.8406C55.4652 59.9728 55.1311 59.9728 52.2821 61.8406C50.4988 63.0098 47.0219 63.8192 43.7777 63.8192C40.5336 63.8192 37.0567 63.0098 35.2733 61.8406C32.4243 59.9728 32.0902 59.9728 29.2412 61.8406C25.3093 64.4199 16.1862 64.4337 12.2727 61.8672C8.75094 59.5577 9.19217 59.5716 6.40422 61.6827ZM6.40422 80.1305C5.17384 81.0609 3.23034 81.8231 2.08405 81.8231C0.382479 81.8231 0 82.7743 0 87.0115C0 92.6681 0.707356 93.0854 5.81783 90.4405C8.86384 88.8644 9.56889 88.8644 12.6149 90.4405C14.4847 91.4078 18.139 92.1999 20.7368 92.1999C23.3347 92.1999 26.989 91.4078 28.8587 90.4405C31.9048 88.8644 32.6098 88.8644 35.6558 90.4405C37.5256 91.4078 41.1799 92.1999 43.7777 92.1999C46.3756 92.1999 50.0299 91.4078 51.8997 90.4405C54.9457 88.8644 55.6507 88.8644 58.6967 90.4405C60.5665 91.4078 64.2208 92.1999 66.8186 92.1999C69.4165 92.1999 73.0708 91.4078 74.9406 90.4405C77.9866 88.8644 78.6916 88.8644 81.7376 90.4405C83.6074 91.4078 86.7179 92.1999 88.6499 92.1999C91.9643 92.1999 92.1636 91.9451 92.1636 87.716C92.1636 83.4442 91.9597 83.1951 87.8435 82.4422C85.468 82.0075 82.3574 80.9007 80.9312 79.9817C78.634 78.5013 77.9958 78.5359 75.3231 80.2884C71.3692 82.8815 62.2681 82.8815 58.3142 80.2884C55.4652 78.4206 55.1311 78.4206 52.2821 80.2884C48.3283 82.8815 39.2272 82.8815 35.2733 80.2884C32.4243 78.4206 32.0902 78.4206 29.2412 80.2884C25.3093 82.8677 16.1862 82.8815 12.2727 80.315C8.75094 78.0055 9.19217 78.0194 6.40422 80.1305Z" fill="#2B3226"/>
</svg>
