<svg width="86" height="101" viewBox="0 0 86 101" fill="none" xmlns="http://www.w3.org/2000/svg">
<path d="M28.8448 76.5871C28.8448 77.4947 29.5806 78.2304 30.4882 78.2304H52.4688L54.5132 67.1233H33.3663H30.4882C29.5806 67.1233 28.8448 67.859 28.8448 68.7666V76.5871Z" fill="#2B3226"/>
<path d="M3.36035 97.1537L23.5013 3.36005M23.5013 3.36005H10.7591M23.5013 3.36005H66.2495M23.5013 3.36005L33.3663 67.1233M76.5255 3.36005H66.2495M66.2495 3.36005L82.28 97.1537M66.2495 3.36005L54.5132 67.1233M48.9858 97.1537L52.4688 78.2304M52.4688 78.2304H30.4882C29.5806 78.2304 28.8448 77.4947 28.8448 76.5871V68.7666C28.8448 67.859 29.5806 67.1233 30.4882 67.1233H33.3663M52.4688 78.2304L54.5132 67.1233M54.5132 67.1233H33.3663" stroke="#2B3226" stroke-width="6.72009" stroke-linecap="round"/>
</svg>
