<svg width="74" height="93" viewBox="0 0 74 93" fill="none" xmlns="http://www.w3.org/2000/svg">
<path fill-rule="evenodd" clip-rule="evenodd" d="M2.50455 2.66801C0.0299529 5.30489 0 5.8295 0 46.2809V87.2246L2.66583 89.7323C5.27061 92.1801 6.07128 92.2389 37.0267 92.2389C68.6665 92.2389 68.7253 92.2343 71.2264 89.5709C73.701 86.934 73.7309 86.4094 73.7309 45.958V5.01434L71.0651 2.50659C68.4603 0.0588022 67.6596 0 36.7042 0C5.06439 0 5.00564 0.00461216 2.50455 2.66801ZM16.6229 11.0352C17.6182 12.0326 18.4327 13.2928 18.4327 13.8358C18.4327 15.1168 15.1045 18.4478 13.8245 18.4478C12.5446 18.4478 9.21637 15.1168 9.21637 13.8358C9.21637 13.2928 10.0309 12.0326 11.0262 11.0352C12.0227 10.0391 13.2819 9.22389 13.8245 9.22389C14.3672 9.22389 15.6263 10.0391 16.6229 11.0352ZM30.4474 11.0352C31.4428 12.0326 32.2573 13.2928 32.2573 13.8358C32.2573 15.1168 28.929 18.4478 27.6491 18.4478C26.3692 18.4478 23.0409 15.1168 23.0409 13.8358C23.0409 12.5549 26.3692 9.22389 27.6491 9.22389C28.1917 9.22389 29.4509 10.0391 30.4474 11.0352ZM46.6579 34.864C50.2707 36.6834 55.3305 41.7531 57.3154 45.543C59.5101 49.7341 59.7025 60.601 57.653 64.5719C53.3063 72.9979 45.939 77.6225 36.8655 77.6225C27.792 77.6225 20.4246 72.9979 16.0779 64.5719C14.0066 60.5595 14.2232 49.7375 16.4593 45.4254C18.8901 40.7408 25.7217 34.8029 29.6859 33.9289C31.4174 33.5473 33.3517 33.0504 33.9853 32.8244C35.7192 32.2064 44.0381 33.545 46.6579 34.864ZM23.0409 57.1305C23.0409 60.4603 26.5201 65.673 29.9152 67.4301C36.8194 71.0032 45.6798 68.6131 48.9424 62.2993C52.4308 55.5474 52.0771 55.3434 36.8655 55.3434C25.148 55.3434 23.0409 55.6155 23.0409 57.1305Z" fill="#2B3226"/>
</svg>
