<svg width="96" height="96" viewBox="0 0 96 96" fill="none" xmlns="http://www.w3.org/2000/svg">
<path fill-rule="evenodd" clip-rule="evenodd" d="M1.74451 2.44322C0.154907 5.01816 2.54499 6.69698 7.80259 6.69698C10.6517 6.69698 15.7152 7.74057 19.0531 9.0167L25.1211 11.3364V40.2109C25.1211 68.565 25.0672 69.0854 22.1572 69.0854C20.5265 69.0854 17.5712 70.3615 15.5905 71.9213C11.5613 75.0931 8.05193 75.5398 5.69303 73.1789C4.04108 71.5257 1.03613 72.5749 1.03613 74.8039C1.03613 76.141 8.39196 80.4288 10.6857 80.4288C11.3941 80.4288 14.3934 78.7868 17.3487 76.7791C22.7197 73.1307 22.7268 73.1307 26.4288 75.8702C33.157 80.8485 36.1477 81.0271 42.2186 76.8173L47.7893 72.9535L53.36 76.8173C59.4308 81.0271 62.4216 80.8485 69.1498 75.8702C72.8518 73.1307 72.8589 73.1307 78.2298 76.7791C84.5245 81.0541 84.8886 81.0994 90.363 78.265C97.0444 74.8067 95.0765 70.4466 88.2406 73.5632C85.0884 75.001 83.962 74.7996 80.3989 72.1637C78.1108 70.4707 74.9387 69.0854 73.3476 69.0854C70.5325 69.0854 70.4575 68.3311 70.4575 40.157V11.2286L75.0619 9.46476C77.5937 8.4949 82.8541 7.31519 86.7502 6.84444C91.7216 6.24324 93.834 5.35421 93.834 3.86114C93.834 0.0908929 83.2126 0.432613 74.0249 4.49779C66.6605 7.759 64.0735 8.1149 47.7893 8.1149C31.5999 8.1149 28.8925 7.74624 21.7152 4.5701C13.5674 0.964331 3.33129 -0.126049 1.74451 2.44322ZM45.232 19.1038C45.5437 23.9531 46.2592 25.8389 47.7893 25.8389C49.3194 25.8389 50.0348 23.9531 50.3465 19.1038L50.7786 12.3687H58.4929H66.2072V41.8614C66.2072 71.6363 65.7042 74.7571 60.9085 74.7571C59.8629 74.7571 57.1626 73.3902 54.9057 71.7213C51.793 69.4186 49.5829 68.8827 45.7534 69.5051L40.7055 70.3247V64.2078C40.7055 58.4553 38.0519 53.7804 35.9706 55.8633C35.4578 56.3766 35.0384 60.8374 35.0384 65.7774C35.0384 70.716 34.5284 74.7571 33.905 74.7571C29.9593 74.7571 29.3714 70.4934 29.3714 41.8614V12.3687H37.0856H44.7999L45.232 19.1038ZM36.0131 21.7921C34.5794 23.2257 34.8245 39.0099 36.2951 39.9188C38.9019 41.531 40.85 36.5073 40.4292 29.2561C40.0282 22.3338 38.3324 19.4696 36.0131 21.7921ZM45.9305 33.1355C45.3935 33.6715 44.9557 37.8316 44.9557 42.3817C44.9557 49.7719 45.2646 50.6525 47.8573 50.6525C50.5123 50.6525 50.722 49.9123 50.3366 41.9025C49.9484 33.8487 48.3645 30.6981 45.9305 33.1355ZM55.5021 39.7146C55.0672 40.8476 54.9071 45.2077 55.1465 49.4033C55.4681 55.0466 56.1354 57.0331 57.7066 57.0331C60.4905 57.0331 60.8291 39.1687 58.0622 38.2457C57.0875 37.921 55.9356 38.5817 55.5021 39.7146ZM35.6703 46.5221C34.211 48.8872 37.4937 51.5982 39.4488 49.6415C41.0837 48.0052 40.0608 44.9808 37.8719 44.9808C37.1848 44.9808 36.1945 45.6742 35.6703 46.5221ZM56.4443 63.937C55.1819 65.4598 55.155 66.2567 56.3451 66.9926C58.6544 68.4218 61.5219 65.2471 59.6306 63.3542C58.6048 62.3276 57.6301 62.5063 56.4443 63.937ZM15.9121 86.1004C13.0418 89.2752 8.14544 89.8126 5.56977 87.2348C2.99835 84.6613 -0.0547745 88.0387 2.28713 90.8647C6.04863 95.3992 13.0503 94.9312 20.2488 89.6651C22.918 87.7112 23.5782 87.8317 27.9617 91.0688C33.7591 95.3495 36.3702 95.4899 41.0922 91.7721C43.0729 90.2124 46.0877 88.9363 47.7893 88.9363C49.4908 88.9363 52.5057 90.2124 54.4863 91.7721C59.2084 95.4899 61.8195 95.3495 67.6169 91.0688C72.0003 87.8317 72.6605 87.7112 75.3297 89.6651C82.5283 94.9312 89.5299 95.3992 93.2914 90.8647C95.6333 88.0387 92.5802 84.6613 90.0088 87.2348C87.4331 89.8126 82.5368 89.2752 79.6664 86.1004C78.2567 84.5407 75.3736 83.2646 73.2626 83.2646C71.1503 83.2646 67.8024 84.5407 65.8204 86.1004C63.8398 87.6602 61.4624 88.9363 60.5401 88.9363C59.6178 88.9363 57.2405 87.6602 55.2599 86.1004C53.2778 84.5407 49.9172 83.2646 47.7893 83.2646C45.6613 83.2646 42.3007 84.5407 40.3187 86.1004C38.3381 87.6602 35.9607 88.9363 35.0384 88.9363C34.1161 88.9363 31.7388 87.6602 29.7581 86.1004C27.7761 84.5407 24.4283 83.2646 22.3159 83.2646C20.2049 83.2646 17.3218 84.5407 15.9121 86.1004Z" fill="#2B3226" stroke="#2B3226" stroke-width="2.07263"/>
</svg>
