<svg width="102" height="71" viewBox="0 0 102 71" fill="none" xmlns="http://www.w3.org/2000/svg">
<path fill-rule="evenodd" clip-rule="evenodd" d="M33.589 1.62618C25.4948 3.56282 10.9617 10.9416 4.60818 16.3394L0 20.2548L4.76256 24.9774L9.52627 29.7L15.8303 24.9968C19.2968 22.41 25.4487 18.9022 29.4993 17.2013C36.2053 14.3868 38.1558 14.1124 51.266 14.1272C68.1343 14.1477 74.254 15.9739 85.9357 24.473L93.015 29.6237L97.4861 25.3099C99.9446 22.9372 101.956 20.7091 101.956 20.3584C101.956 18.9728 89.4586 10.1891 82.6708 6.80535C78.717 4.83342 72.2367 2.46414 68.2702 1.54079C59.305 -0.54841 42.5059 -0.506284 33.589 1.62618ZM42.1015 26.0533C36.0406 27.3034 26.739 31.738 21.89 35.6887L18.435 38.5043L23.1481 43.1631L27.8622 47.822L33.3748 44.3665C44.7662 37.228 57.7601 37.2234 69.14 44.3563L74.6284 47.7958L79.0764 43.5047C81.5222 41.1434 83.5233 38.8663 83.5233 38.4439C83.5233 37.0321 71.4925 29.5133 66.4546 27.7759C59.9501 25.5319 48.5437 24.7246 42.1015 26.0533ZM42.3377 53.4566C39.6453 54.7738 37.4415 56.1993 37.4415 56.6228C37.4415 57.0463 40.552 60.4346 44.3538 64.153L51.266 70.9125L58.1783 64.153C61.9801 60.4346 65.0906 57.0873 65.0906 56.7127C65.0906 56.3393 63.0756 54.9139 60.6137 53.5465C54.9722 50.4133 48.6232 50.3825 42.3377 53.4566Z" fill="#2B3226"/>
</svg>
