<svg width="84" height="84" viewBox="0 0 84 84" fill="none" xmlns="http://www.w3.org/2000/svg">
<path fill-rule="evenodd" clip-rule="evenodd" d="M0 6.00937V12.0199L5.76023 6.34143C8.92835 3.21799 11.5205 0.514232 11.5205 0.33206C11.5205 0.148735 8.92835 0 5.76023 0H0V6.00937ZM38.3032 13.5338L51.8259 27.0664L55.5539 23.3353L59.2831 19.6042L49.5391 9.80154L39.7963 0H32.2884H24.7817L38.3032 13.5338ZM58.7232 2.9159L55.986 5.83181L59.6794 9.52828L63.3717 13.2248L69.9787 6.61238L76.5857 0H69.0225C62.4224 0 61.1114 0.371262 58.7232 2.9159ZM9.47903 15.3013L0 24.8376V32.3021V39.7654L13.4962 26.2581L26.9936 12.7509L23.6492 9.25733C21.8105 7.33645 20.003 5.76493 19.632 5.76493C19.2611 5.76493 14.692 10.0564 9.47903 15.3013ZM69.1435 20.1484L55.9157 33.4332L59.646 37.1665L63.3763 40.9011L73.2229 31.0465L83.0683 21.1919L82.7203 14.0272L82.3713 6.86373L69.1435 20.1484ZM27.0408 23.0943L23.6964 26.5867L37.7617 40.6624L51.8259 54.7392L55.5586 51.0035L59.29 47.2678L45.5035 33.4343C37.9207 25.8258 31.4174 19.6008 31.0511 19.6008C30.6847 19.6008 28.8795 21.1723 27.0408 23.0943ZM9.47903 42.973L0 52.5093V59.9738V67.437L13.4962 53.9298L26.9936 40.4226L23.6492 36.929C21.8105 35.0081 20.003 33.4366 19.632 33.4366C19.2611 33.4366 14.692 37.728 9.47903 42.973ZM69.1435 47.8201L55.9157 61.1048L59.646 64.8382L63.3763 68.5727L73.2229 58.7182L83.0683 48.8636L82.7203 41.6989L82.3713 34.5354L69.1435 47.8201ZM27.0408 50.766L23.6964 54.2584L37.7617 68.3341L51.8259 82.4109L55.5586 78.6752L59.29 74.9395L45.5035 61.106C37.9207 53.4974 31.4174 47.2725 31.0511 47.2725C30.6847 47.2725 28.8795 48.844 27.0408 50.766ZM9.47903 70.6447C4.26603 75.8896 0 80.8186 0 81.598C0 82.54 2.03912 83.0151 6.08165 83.0151C12.0354 83.0151 12.3177 82.8582 19.5652 75.5402L26.9671 68.0666L23.6365 64.5869C21.8048 62.6741 20.003 61.1083 19.632 61.1083C19.2611 61.1083 14.692 65.3997 9.47903 70.6447ZM72.027 72.6059L61.6828 83.0151H69.2195C76.0062 83.0151 77.0695 82.6876 79.9105 79.7198C82.7595 76.744 83.0325 75.7328 82.718 69.3095L82.3713 62.1956L72.027 72.6059ZM27.2885 78.1783C25.5858 79.9562 24.193 81.7721 24.193 82.2137C24.193 82.6542 27.6641 83.0151 31.9071 83.0151H39.6212L35.7134 78.9796C33.5637 76.7601 31.4854 74.9441 31.0949 74.9441C30.7043 74.9441 28.9912 76.3992 27.2885 78.1783Z" fill="#2B3226"/>
</svg>
