<svg width="2940" height="300" viewBox="0 0 2940 300" fill="none" xmlns="http://www.w3.org/2000/svg">
<path d="M151.5 48H359V98H129L151.5 48Z" fill="black"/>
<path d="M116.5 128H359V178H94L116.5 128Z" fill="black"/>
<path d="M81.5 208H359V258H59L81.5 208Z" fill="black"/>
<path d="M569.7 255.6C549.7 255.6 532.5 252 518.1 244.8C503.7 237.6 492.6 226.4 484.8 211.2C477.2 195.8 473.4 176 473.4 151.8C473.4 128 477.2 108.5 484.8 93.3C492.6 77.9 503.7 66.5 518.1 59.1C532.5 51.7 549.6 48 569.4 48C581.6 48 593.5 49.3 605.1 51.9C616.7 54.3 627.8 57.8 638.4 62.4V100.2C627.2 94.4 616.4 89.7 606 86.1C595.8 82.5 585.3 80.7 574.5 80.7C561.5 80.7 550.5 83 541.5 87.6C532.7 92.2 526 99.7 521.4 110.1C517 120.5 514.8 134.4 514.8 151.8C514.8 169 517.1 182.9 521.7 193.5C526.3 203.9 532.9 211.5 541.5 216.3C550.3 220.9 560.7 223.2 572.7 223.2C579.1 223.2 585 222.8 590.4 222C596 221 601.2 219.5 606 217.5V175.8H568.5V143.1H646.5V236.1C634.5 242.5 622 247.4 609 250.8C596.2 254 583.1 255.6 569.7 255.6ZM727.859 252H690.059V43.8H727.859V252ZM836.046 256.5C811.246 256.5 792.646 249.6 780.246 235.8C767.846 222 761.646 202.1 761.646 176.1C761.646 148.3 767.946 128.1 780.546 115.5C793.346 102.9 811.746 96.6 835.746 96.6C852.546 96.6 866.546 99.6 877.746 105.6C888.946 111.4 897.246 120.2 902.646 132C908.246 143.8 911.046 158.5 911.046 176.1C911.046 202.1 904.546 222 891.546 235.8C878.746 249.6 860.246 256.5 836.046 256.5ZM836.046 225.3C844.846 225.3 851.946 223.3 857.346 219.3C862.946 215.3 867.046 209.7 869.646 202.5C872.246 195.1 873.546 186.3 873.546 176.1C873.546 164.7 872.146 155.4 869.346 148.2C866.746 141 862.646 135.7 857.046 132.3C851.646 128.9 844.646 127.2 836.046 127.2C827.246 127.2 820.146 129 814.746 132.6C809.346 136.2 805.346 141.6 802.746 148.8C800.346 156 799.146 165.1 799.146 176.1C799.146 192.1 802.046 204.3 807.846 212.7C813.646 221.1 823.046 225.3 836.046 225.3ZM1011.54 256.5C1003.14 256.5 994.941 256 986.941 255C979.141 254 972.041 252.2 965.641 249.6C959.441 246.8 954.441 243 950.641 238.2C946.841 233.4 944.941 227.2 944.941 219.6V42.6H982.441V124.5L974.041 112.5C977.841 108.9 982.541 106 988.141 103.8C993.741 101.6 999.441 100 1005.24 99C1011.24 97.8 1016.24 97.2 1020.24 97.2C1042.84 97.2 1059.84 104 1071.24 117.6C1082.84 131 1088.64 150.2 1088.64 175.2C1088.64 191.2 1086.54 204.5 1082.34 215.1C1078.34 225.5 1072.74 233.7 1065.54 239.7C1058.34 245.7 1050.14 250 1040.94 252.6C1031.74 255.2 1021.94 256.5 1011.54 256.5ZM1010.34 224.4C1020.74 224.4 1028.84 222.3 1034.64 218.1C1040.44 213.9 1044.54 208.3 1046.94 201.3C1049.34 194.3 1050.54 186.3 1050.54 177.3C1050.54 165.9 1049.04 156.6 1046.04 149.4C1043.04 142.2 1038.74 136.9 1033.14 133.5C1027.54 129.9 1020.64 128.1 1012.44 128.1C1007.84 128.1 1002.74 128.7 997.141 129.9C991.741 131.1 986.841 133 982.441 135.6V210C982.441 213.8 983.741 216.8 986.341 219C989.141 221 992.641 222.4 996.841 223.2C1001.24 224 1005.74 224.4 1010.34 224.4ZM1178.88 256.5C1170.48 256.5 1162.48 255.7 1154.88 254.1C1147.28 252.5 1140.48 249.9 1134.48 246.3C1128.48 242.5 1123.68 237.4 1120.08 231C1116.68 224.4 1114.98 216.2 1114.98 206.4C1114.98 196.2 1117.08 187.6 1121.28 180.6C1125.48 173.4 1131.58 168 1139.58 164.4C1147.78 160.6 1157.78 158.7 1169.58 158.7C1176.78 158.7 1183.48 159.4 1189.68 160.8C1195.88 162 1201.48 163.7 1206.48 165.9C1211.48 168.1 1215.58 170.5 1218.78 173.1L1221.48 194.4C1217.28 191.6 1211.88 189.4 1205.28 187.8C1198.88 186 1191.88 185.1 1184.28 185.1C1173.68 185.1 1165.78 186.8 1160.58 190.2C1155.38 193.6 1152.78 198.9 1152.78 206.1C1152.78 211.1 1154.18 215.3 1156.98 218.7C1159.78 221.9 1163.38 224.4 1167.78 226.2C1172.18 227.8 1176.78 228.6 1181.58 228.6C1192.58 228.6 1200.48 227.9 1205.28 226.5C1210.28 224.9 1212.78 221.6 1212.78 216.6V156.9C1212.78 147.1 1209.68 140 1203.48 135.6C1197.28 131 1188.58 128.7 1177.38 128.7C1168.78 128.7 1159.98 130.2 1150.98 133.2C1141.98 136 1134.68 139.7 1129.08 144.3V109.8C1134.48 106.4 1142.58 103.4 1153.38 100.8C1164.18 98.2 1175.78 96.9 1188.18 96.9C1193.38 96.9 1198.88 97.4 1204.68 98.4C1210.48 99.4 1215.98 101 1221.18 103.2C1226.58 105.4 1231.48 108.5 1235.88 112.5C1240.28 116.3 1243.78 121.2 1246.38 127.2C1248.98 133 1250.28 140.1 1250.28 148.5V220.2C1250.28 229.6 1247.28 237 1241.28 242.4C1235.28 247.6 1226.98 251.2 1216.38 253.2C1205.78 255.4 1193.28 256.5 1178.88 256.5ZM1330.2 252H1292.4V43.8H1330.2V252ZM1373.59 252V51.9H1453.09C1468.49 51.9 1481.39 54 1491.79 58.2C1502.19 62.2 1510.09 68.3 1515.49 76.5C1520.89 84.5 1523.59 94.6 1523.59 106.8C1523.59 115.6 1521.59 122.8 1517.59 128.4C1513.79 134 1509.09 138.5 1503.49 141.9C1498.09 145.1 1492.99 147.9 1488.19 150.3L1483.69 141.9C1492.89 142.7 1501.29 145.2 1508.89 149.4C1516.69 153.4 1522.89 159 1527.49 166.2C1532.09 173.4 1534.39 182.2 1534.39 192.6C1534.39 206.4 1531.09 217.7 1524.49 226.5C1518.09 235.3 1509.29 241.8 1498.09 246C1487.09 250 1474.59 252 1460.59 252H1373.59ZM1414.39 219.6H1458.49C1464.49 219.6 1470.09 218.8 1475.29 217.2C1480.49 215.6 1484.69 212.7 1487.89 208.5C1491.09 204.3 1492.69 198.5 1492.69 191.1C1492.69 185.3 1491.69 180.7 1489.69 177.3C1487.69 173.7 1484.99 171 1481.59 169.2C1478.19 167.2 1474.39 165.9 1470.19 165.3C1466.19 164.5 1461.99 164.1 1457.59 164.1H1414.39V219.6ZM1414.39 132.9H1456.39C1460.59 132.9 1464.69 132.3 1468.69 131.1C1472.69 129.7 1475.89 127.4 1478.29 124.2C1480.89 120.8 1482.19 116.1 1482.19 110.1C1482.19 100.3 1479.49 93.6 1474.09 90C1468.69 86.4 1461.79 84.6 1453.39 84.6H1414.39V132.9ZM1625.95 256.5C1617.55 256.5 1609.55 255.7 1601.95 254.1C1594.35 252.5 1587.55 249.9 1581.55 246.3C1575.55 242.5 1570.75 237.4 1567.15 231C1563.75 224.4 1562.05 216.2 1562.05 206.4C1562.05 196.2 1564.15 187.6 1568.35 180.6C1572.55 173.4 1578.65 168 1586.65 164.4C1594.85 160.6 1604.85 158.7 1616.65 158.7C1623.85 158.7 1630.55 159.4 1636.75 160.8C1642.95 162 1648.55 163.7 1653.55 165.9C1658.55 168.1 1662.65 170.5 1665.85 173.1L1668.55 194.4C1664.35 191.6 1658.95 189.4 1652.35 187.8C1645.95 186 1638.95 185.1 1631.35 185.1C1620.75 185.1 1612.85 186.8 1607.65 190.2C1602.45 193.6 1599.85 198.9 1599.85 206.1C1599.85 211.1 1601.25 215.3 1604.05 218.7C1606.85 221.9 1610.45 224.4 1614.85 226.2C1619.25 227.8 1623.85 228.6 1628.65 228.6C1639.65 228.6 1647.55 227.9 1652.35 226.5C1657.35 224.9 1659.85 221.6 1659.85 216.6V156.9C1659.85 147.1 1656.75 140 1650.55 135.6C1644.35 131 1635.65 128.7 1624.45 128.7C1615.85 128.7 1607.05 130.2 1598.05 133.2C1589.05 136 1581.75 139.7 1576.15 144.3V109.8C1581.55 106.4 1589.65 103.4 1600.45 100.8C1611.25 98.2 1622.85 96.9 1635.25 96.9C1640.45 96.9 1645.95 97.4 1651.75 98.4C1657.55 99.4 1663.05 101 1668.25 103.2C1673.65 105.4 1678.55 108.5 1682.95 112.5C1687.35 116.3 1690.85 121.2 1693.45 127.2C1696.05 133 1697.35 140.1 1697.35 148.5V220.2C1697.35 229.6 1694.35 237 1688.35 242.4C1682.35 247.6 1674.05 251.2 1663.45 253.2C1652.85 255.4 1640.35 256.5 1625.95 256.5ZM1777.27 252H1739.47V43.8H1777.27V252ZM1820.06 252V102.3H1858.16L1858.46 252H1820.06ZM1819.16 78.3V47.1H1859.06V78.3H1819.16ZM1902.69 252V51.9H1943.49V135.6H2026.59V51.9H2067.09V252H2026.59V169.5H1943.49V252H1902.69ZM2176.96 256.5C2152.16 256.5 2133.56 249.6 2121.16 235.8C2108.76 222 2102.56 202.1 2102.56 176.1C2102.56 148.3 2108.86 128.1 2121.46 115.5C2134.26 102.9 2152.66 96.6 2176.66 96.6C2193.46 96.6 2207.46 99.6 2218.66 105.6C2229.86 111.4 2238.16 120.2 2243.56 132C2249.16 143.8 2251.96 158.5 2251.96 176.1C2251.96 202.1 2245.46 222 2232.46 235.8C2219.66 249.6 2201.16 256.5 2176.96 256.5ZM2176.96 225.3C2185.76 225.3 2192.86 223.3 2198.26 219.3C2203.86 215.3 2207.96 209.7 2210.56 202.5C2213.16 195.1 2214.46 186.3 2214.46 176.1C2214.46 164.7 2213.06 155.4 2210.26 148.2C2207.66 141 2203.56 135.7 2197.96 132.3C2192.56 128.9 2185.56 127.2 2176.96 127.2C2168.16 127.2 2161.06 129 2155.66 132.6C2150.26 136.2 2146.26 141.6 2143.66 148.8C2141.26 156 2140.06 165.1 2140.06 176.1C2140.06 192.1 2142.96 204.3 2148.76 212.7C2154.56 221.1 2163.96 225.3 2176.96 225.3ZM2421.46 151.2V252H2383.66V157.8C2383.66 154 2383.16 150.4 2382.16 147C2381.16 143.4 2379.46 140.3 2377.06 137.7C2374.66 134.9 2371.36 132.8 2367.16 131.4C2362.96 129.8 2357.56 129 2350.96 129C2345.96 129 2341.06 129.5 2336.26 130.5C2331.66 131.5 2327.56 132.8 2323.96 134.4V252H2285.86V113.4C2290.06 111.4 2295.06 109.4 2300.86 107.4C2306.66 105.4 2312.96 103.7 2319.76 102.3C2326.56 100.7 2333.36 99.5 2340.16 98.7C2347.16 97.7 2353.76 97.2 2359.96 97.2C2373.96 97.2 2385.46 99.1 2394.46 102.9C2403.46 106.5 2410.16 112.3 2414.56 120.3C2419.16 128.1 2421.46 138.4 2421.46 151.2ZM2380.66 122.4C2387.06 117 2394.36 112.5 2402.56 108.9C2410.76 105.1 2419.36 102.2 2428.36 100.2C2437.36 98.2 2445.96 97.2 2454.16 97.2C2468.16 97.2 2479.66 99.1 2488.66 102.9C2497.66 106.5 2504.36 112.3 2508.76 120.3C2513.36 128.1 2515.66 138.4 2515.66 151.2V252H2477.86V157.8C2477.86 154 2477.36 150.4 2476.36 147C2475.36 143.4 2473.66 140.3 2471.26 137.7C2468.86 134.9 2465.56 132.8 2461.36 131.4C2457.16 129.8 2451.76 129 2445.16 129C2440.16 129 2435.26 129.7 2430.46 131.1C2425.86 132.5 2421.76 134.6 2418.16 137.4L2380.66 122.4ZM2624.33 256.5C2609.33 256.5 2596.23 253.5 2585.03 247.5C2573.83 241.3 2565.13 232.3 2558.93 220.5C2552.73 208.7 2549.63 194.5 2549.63 177.9C2549.63 151.5 2555.93 131.4 2568.53 117.6C2581.33 103.6 2599.23 96.6 2622.23 96.6C2638.83 96.6 2652.13 100.2 2662.13 107.4C2672.33 114.6 2679.73 124.9 2684.33 138.3C2689.13 151.5 2691.43 167.3 2691.23 185.7H2574.23L2571.23 159.9H2660.93L2653.73 170.7C2653.33 154.9 2650.53 143.6 2645.33 136.8C2640.33 129.8 2632.23 126.3 2621.03 126.3C2614.23 126.3 2608.23 127.9 2603.03 131.1C2598.03 134.1 2594.13 139.2 2591.33 146.4C2588.73 153.6 2587.43 163.5 2587.43 176.1C2587.43 191.7 2591.13 203.7 2598.53 212.1C2605.93 220.3 2617.23 224.4 2632.43 224.4C2638.63 224.4 2644.53 223.8 2650.13 222.6C2655.93 221.2 2661.23 219.6 2666.03 217.8C2671.03 216 2675.23 214.3 2678.63 212.7V246.3C2671.63 249.3 2663.63 251.7 2654.63 253.5C2645.83 255.5 2635.73 256.5 2624.33 256.5Z" fill="black"/>
</svg>
