<svg width="1000" height="1000" viewBox="0 0 1000 1000" fill="none" xmlns="http://www.w3.org/2000/svg">
<g clip-path="url(#clip0_1_8)">
<path fill-rule="evenodd" clip-rule="evenodd" d="M498.396 50.7081C498.396 50.9887 502.499 55.5466 507.515 60.8384C512.529 66.1302 521.117 76.2005 526.598 83.2167C532.077 90.2329 536.919 96.3111 537.354 96.7238C537.789 97.1365 540.824 100.851 544.095 104.978C547.367 109.105 550.421 112.82 550.881 113.232C555.662 117.519 580.799 153.069 594.539 174.976C603.878 189.863 625.307 228.988 626.717 233.722C627.261 235.551 629.265 240.762 631.17 245.302C633.075 249.842 636.324 258.116 638.388 263.69L642.143 273.823L635.151 279.448C619.124 292.344 602.307 311.356 595.997 323.718C594.837 325.987 593.469 327.845 592.955 327.845C592.44 327.845 589.403 323.286 586.206 317.715C578.351 304.028 569.904 289.905 568.476 288.074C567.833 287.249 564.611 282.859 561.317 278.319C548.909 261.219 513.846 228.537 505.872 226.64C500.325 225.319 495.177 227.359 487.17 234.046C463.605 253.73 435.368 290.015 422.055 317.715C420.17 321.637 418.029 324.844 417.297 324.844C416.565 324.844 414.806 322.986 413.39 320.717C407.742 311.67 385.974 291.817 372.785 283.683C360.281 275.972 359.756 275.226 361.925 268.261C367.845 249.254 384.696 212.79 399.585 186.771C405.819 175.877 427.28 143.34 435.714 131.992C439.395 127.04 448.37 114.883 455.655 104.978C462.942 95.0729 469.634 86.4719 470.525 85.8656C471.417 85.2593 471.692 84.7535 471.137 84.74C470.582 84.728 471.932 82.7904 474.137 80.4342C488.387 65.2102 487.635 62.1216 473.097 76.1645C467.43 81.6378 463.043 86.3653 463.349 86.67C463.653 86.9761 461.033 89.9462 457.524 93.2735C448.263 102.055 436.839 114.483 430.898 122.237C428.052 125.952 425.345 129.328 424.88 129.741C424.416 130.154 419.435 136.811 413.81 144.534C389.793 177.513 370.229 212.6 359.603 241.751C352.881 260.188 349.691 267.764 348.278 268.638C347.673 269.011 342.897 267.395 337.664 265.048C315.932 255.299 290.627 248.143 268.146 245.391C255.027 243.783 212.609 242.596 211.413 243.801C210.111 245.113 214.511 289.496 217.16 301.778C219.764 313.854 227.919 341.804 230.019 345.855C230.661 347.093 234.03 354.184 237.506 361.613C240.98 369.042 245.415 377.472 247.359 380.346C249.305 383.22 250.896 385.997 250.896 386.516C250.896 387.035 246.003 388.97 240.021 390.816C203.07 402.219 177.366 414.432 151.146 433.043C133.802 445.354 122.387 457.455 122.001 463.94C121.794 467.438 144.614 487.081 164.073 500.153C193.478 519.905 245.454 541.213 283.688 549.188C289.761 550.456 295.233 551.804 295.848 552.184C296.463 552.563 293.711 561.559 289.731 572.171C272.39 618.422 265.938 660.821 271.01 695.183C274.076 715.947 274.028 715.822 279.879 718.268C285.699 720.704 295.239 720.409 312.245 717.266C380.154 704.715 436.07 679.471 470.07 646.013C486.162 630.177 493.649 620.105 501.068 604.316L506.847 592.011L511.062 602.879C521.598 630.043 551.622 662.468 583.146 680.726C597.473 689.024 622.319 699.319 640.172 704.358C676.034 714.476 727.727 719.262 738.551 713.466C741.842 711.704 741.854 711.549 740.868 682.23C739.304 635.641 732.065 595.6 718.355 557.718C714.221 546.297 714.276 543.959 718.68 543.959C721.518 543.959 751.268 534.117 766.896 528.006C792.984 517.806 832.427 496.329 846.099 484.878C862.02 471.543 879.396 453.427 879.396 450.163C879.396 448.321 863.543 433.435 855.344 427.577C834.212 412.479 807.528 399.957 775.571 390.139L756.494 384.277L760.991 376.698C772.418 357.432 781.122 335.9 785.894 315.089C787.958 306.084 788.625 297.268 788.562 279.82C788.478 256.562 786.852 245.971 782.729 241.847C779.585 238.702 754.904 235.808 741.579 237.022C713.723 239.561 694.514 245.134 668.93 258.096C660.009 262.615 652.475 266.313 652.185 266.313C651.896 266.313 649.823 261.417 647.579 255.432C643.587 244.79 621.896 199.447 615.083 187.502C608.583 176.11 585.926 142.487 579.14 134.164C575.402 129.581 570.315 123.028 567.834 119.603C558.806 107.133 551.319 98.6148 533.549 80.5903C523.58 70.4795 515.715 62.2056 516.072 62.2056C516.431 62.2056 513.456 59.5042 509.462 56.2025C503.339 51.1403 498.396 48.6865 498.396 50.7081ZM526.923 251.329C532.301 256.762 539.388 264.545 542.673 268.624C545.958 272.703 550.164 277.73 552.021 279.792C553.878 281.854 555.396 283.952 555.396 284.453C555.396 284.954 556.776 286.956 558.464 288.903C560.151 290.849 562.985 294.837 564.759 297.762C566.535 300.689 568.418 303.42 568.943 303.833C570.354 304.943 584.211 333.313 588 342.853C592.959 355.337 600.027 381.868 601.809 394.691C604.085 411.055 603.765 439.227 601.148 452.905C595.359 483.177 577.263 513.558 557.727 525.803C546.656 532.742 545.324 531.462 553.584 521.823C573.731 498.308 585.321 465.408 585.372 431.589C585.399 413.676 580.362 385.786 574.08 369.078C568.502 354.243 557.658 333.736 550.5 324.484C541.289 312.579 524.249 296.24 514.146 289.626C509.196 286.385 504.405 282.75 503.499 281.548C502.593 280.345 501.074 279.843 500.124 280.429C497.409 282.109 498.102 284.323 501.344 284.323C502.964 284.323 505.013 285.673 505.896 287.324C506.78 288.975 508.434 290.326 509.574 290.326C510.714 290.326 511.871 290.912 512.147 291.63C512.421 292.347 518.028 298.831 524.607 306.036C531.186 313.243 537.599 320.652 538.857 322.501C565.191 361.173 571.992 378.947 575.639 418.643C577.473 438.599 571.098 471.932 561.864 490.681C551.328 512.069 539.615 526.616 524.108 537.57C518.628 541.441 513.771 545.133 513.314 545.774C512.262 547.249 490.044 538.07 479.004 531.599C470.895 526.846 442.896 500.468 442.896 497.58C442.896 496.792 442.01 495.256 440.925 494.164C437.64 490.86 429.729 472.886 427.086 462.724C422.766 446.114 424.086 405.378 429.341 393.13C432.497 385.773 435.407 374.1 434.465 372.576C433.839 371.562 434.114 371.326 435.164 371.976C436.191 372.609 436.896 372.093 436.896 370.706C436.896 369.42 437.498 368.367 438.234 368.367C439.329 368.367 440.558 365.497 442.089 359.362C442.256 358.696 448.928 347.206 453.839 339.13C455.886 335.762 468.569 318.487 469.835 317.34C470.291 316.927 472.584 314.013 474.932 310.862C479.325 304.967 479.369 301.828 475.007 305.449C471.606 308.272 454.254 330.755 451.929 335.349C450.884 337.413 448.256 341.048 446.088 343.427C443.487 346.28 442.769 347.977 443.979 348.415C445.172 348.847 444.518 350.278 442.104 352.517C440.064 354.408 438.396 357.099 438.396 358.498C438.396 359.896 437.808 360.677 437.088 360.231C436.37 359.787 434.625 362.617 433.214 366.521C430.017 375.354 429.713 376.096 428.139 378.872C424.551 385.201 423.356 388.677 419.588 403.73C415.848 418.673 415.568 421.754 416.321 439.621C416.979 455.246 417.917 461.383 420.993 470.227C424.346 479.866 434.232 499.749 436.767 501.951C440.498 505.189 444.588 510.942 443.162 510.942C439.626 510.942 429.711 500.246 424.752 491.083C413.165 469.673 408.527 453.925 406.953 430.65C404.529 394.766 411.222 361.484 428.232 324.848C444.789 289.191 471.84 254.161 497.634 234.98L503.621 230.527L510.384 235.988C514.103 238.993 521.546 245.896 526.923 251.329ZM772.949 245.33C774.884 246.366 775.791 250.678 777.114 265.114C780.716 304.453 772.391 338.956 751.112 372.892C746.084 380.91 744.231 381.995 738.297 380.396C731.238 378.491 690.353 373.09 678.396 372.482L668.646 371.987L667.697 348.04C666.747 324.119 664.109 307.906 657.444 285.073C653.931 273.032 653.198 274.39 667.896 265.746C689.043 253.31 709.652 246.867 739.896 243.237C747.425 242.333 770.025 243.764 772.949 245.33ZM265.896 248.358C284.184 251.233 313.307 258.794 323.646 263.35C347.859 274.021 347.279 273.67 346.458 277.18C339.929 305.113 339.086 311.79 338.34 341.501L337.565 372.414L316.355 374.939C304.691 376.327 288.233 378.88 279.783 380.612C268.923 382.837 263.865 383.301 262.529 382.191C259.364 379.563 248.274 356.267 243.23 341.648C235.497 319.243 226.896 273.1 226.896 254.023V246.803L241.521 246.815C249.566 246.821 260.534 247.516 265.896 248.358ZM374.646 290.293C389.598 300.81 397.8 308.865 407.721 322.776L414.845 332.764L411.408 341.936C409.518 346.98 406.457 356.511 404.606 363.114C402.27 371.451 400.616 374.954 399.194 374.576C398.067 374.277 386.601 373.677 373.713 373.243L350.28 372.455L349.338 363.438C347.688 347.647 348.312 333.142 351.425 314.862C354.585 296.302 354.95 294.588 357.656 285.549C359.537 279.263 358.592 278.999 374.646 290.293ZM648.117 296.704C652.62 315.582 655.635 337.59 656.187 355.61L656.646 370.618L640.146 371.628C631.071 372.185 620.237 373.06 616.07 373.574L608.493 374.511L604.203 360.558C601.844 352.885 598.673 344.099 597.155 341.037C594.225 335.123 593.435 328.575 595.83 330.056C596.619 330.544 598.472 329.064 599.949 326.768C606.365 316.788 639.534 282.822 642.863 282.822C644.075 282.822 646.05 288.041 648.117 296.704ZM415.896 326.345C415.896 327.17 415.221 327.845 414.396 327.845C413.571 327.845 412.896 327.17 412.896 326.345C412.896 325.519 413.571 324.844 414.396 324.844C415.221 324.844 415.896 325.519 415.896 326.345ZM501.849 330.098C500.081 331.338 498.222 334.207 497.718 336.476C497.175 338.923 494.664 341.995 491.553 344.022C488.667 345.903 484.5 349.981 482.292 353.083C479.717 356.703 475.473 359.962 470.448 362.18C454.256 369.33 443.891 382.911 444.054 396.76C444.098 400.409 443.178 404.851 442.011 406.631C440.258 409.308 440.181 412.032 441.567 422.335C443.094 433.683 442.775 447.602 440.516 468.169C439.509 477.329 442.479 487.414 446.405 488.17C449.247 488.718 456.344 483.158 456.464 480.29C456.501 479.401 457.385 476.674 458.426 474.229L460.322 469.786L463.569 476.481C471.462 492.751 483.183 501.904 497.604 503.063C512.798 504.283 524.069 497.733 536.988 480.176C539.363 476.949 540.315 476.394 540.348 478.214C540.399 480.951 545.804 485.428 549.057 485.428C552.281 485.428 554.969 476.622 556.13 462.249C556.727 454.865 558.83 443.73 560.805 437.504C564.828 424.82 565.398 416.09 562.368 413.574C561.122 412.54 559.958 406.933 559.352 399.043C558.71 390.676 557.288 384.083 555.278 380.139C550.931 371.616 540.723 361.925 533.64 359.598C528.941 358.053 526.985 356.284 524.64 351.457C522.993 348.064 519.794 344.234 517.53 342.945C514.709 341.339 513.413 339.379 513.405 336.708C513.396 332.948 509.412 327.845 506.487 327.845C505.704 327.845 503.618 328.86 501.849 330.098ZM508.62 335.84C509.027 339.269 508.536 339.852 505.245 339.852C501.069 339.852 500.51 338.309 502.998 333.658C505.116 329.699 508.028 330.829 508.62 335.84ZM511.286 344.995C512.967 346.173 515.582 349.888 517.097 353.249C518.612 356.611 520.461 359.362 521.207 359.362C527.778 359.362 543.873 372.513 549.803 382.729C551.589 385.806 553.796 406.014 552.858 410.706C551.846 415.771 549.396 416.267 549.396 411.406C549.396 409.49 548.303 404.711 546.966 400.787C543.5 390.608 540.879 389.825 523.248 393.705C506.186 397.46 496.16 397.698 484.388 394.631C473.213 391.718 464.732 391.758 461.754 394.737C460.458 396.034 458.973 399.748 458.456 402.991C457.937 406.235 457.172 408.888 456.755 408.888C454.073 408.888 450.396 401.653 450.396 396.376C450.396 383.456 461.519 369.434 475.791 364.361C479.973 362.875 483.396 361.128 483.396 360.479C483.396 359.829 485.238 356.514 487.488 353.11C493.571 343.916 504.45 340.206 511.286 344.995ZM399.525 379.081C400.043 379.918 399.864 383.76 399.128 387.617C397.313 397.135 396.969 423.272 398.451 439.279L399.666 452.411H390.14H380.615L373.778 440.78C363.779 423.771 354.999 400.593 352.211 383.847L351.165 377.567L356.906 377.094C368.195 376.165 398.6 377.582 399.525 379.081ZM655.161 377.396C658.913 383.468 640.85 444.527 634.667 446.676C633.555 447.064 628.259 447.329 622.896 447.269L613.146 447.158L613.649 429.899C614.096 414.564 612.987 400.359 609.999 383.127C609.141 378.185 609.405 377.558 612.596 376.953C620.03 375.544 654.237 375.899 655.161 377.396ZM694.146 378.988C711.408 380.993 739.896 386.489 739.896 387.814C739.896 388.372 734.7 394.08 728.349 400.496C715.689 413.287 703.865 422.175 688.896 430.151C678.75 435.559 652.953 445.464 651.861 444.371C651.516 444.026 652.944 439.537 655.032 434.394C659.288 423.914 665.585 398.879 667.088 386.462C667.631 381.97 668.333 377.88 668.645 377.373C669.275 376.354 674.121 376.66 694.146 378.988ZM340.799 386.001C344.178 401.51 351.846 422.875 359.112 437.028C367.148 452.678 367.394 452.309 351.396 448.612C329.385 443.526 307.808 431.829 289.313 414.959C282.591 408.827 268.896 392.788 268.896 391.047C268.896 389.052 303.923 381.94 331.146 378.406C333.621 378.084 336.383 377.72 337.283 377.597C338.183 377.472 339.765 381.254 340.799 386.001ZM768.824 394.865C775.601 397.057 781.788 399.421 782.571 400.117C783.356 400.814 784.868 401.384 785.931 401.384C791.981 401.384 828.609 420.043 841.877 429.884C847.347 433.942 855.393 441.1 859.755 445.788L867.686 454.314L857.415 464.077C851.768 469.446 842.759 477.111 837.396 481.109C832.034 485.107 826.928 488.975 826.05 489.704C820.106 494.639 790.476 509.978 765.141 521.239C754.862 525.807 723.162 536.217 716.081 537.35C710.414 538.256 709.85 538.03 708.413 534.248C706.572 529.404 696.614 511.932 689.276 500.67C682.383 490.094 661.65 469.215 651.833 462.963C645.204 458.743 644.244 457.568 645.501 455.217C646.316 453.693 648.819 452.058 651.065 451.586C689.198 443.538 714.849 429.453 740.241 402.616C746.24 396.278 752.351 391.045 753.824 390.985C755.297 390.927 762.047 392.672 768.824 394.865ZM260.831 399.508C284.543 430.615 322.5 452.078 361.116 456.215C368.468 457.003 371.508 458.031 373.065 460.256C375.026 463.056 374.54 463.547 365.15 468.256C345.39 478.168 319.263 507.906 304.413 537.387L300.543 545.071L288.095 542.14C260.631 535.673 215.52 518.558 199.845 508.659C196.607 506.612 193.541 504.939 193.032 504.939C191.507 504.939 166.542 488.28 160.896 483.494C158.009 481.046 151.161 474.782 145.682 469.573L135.716 460.101L140.432 454.959C155.514 438.512 188.019 418.462 218.646 406.713C224.421 404.497 231.509 401.762 234.396 400.635C242.013 397.662 252.878 394.135 254.843 393.999C255.777 393.934 258.471 396.414 260.831 399.508ZM494.097 400.045C502.628 401.665 506.054 401.572 518.097 399.396C525.824 397.998 533.666 396.445 535.524 395.942C538.346 395.18 539.276 395.923 541.17 400.46C542.418 403.448 544.46 410.749 545.708 416.685C546.956 422.622 548.187 427.688 548.442 427.945C548.699 428.2 550.706 425.883 552.902 422.794L556.896 417.178V423.974C556.896 427.711 555.963 434.457 554.825 438.964C553.685 443.471 552.3 449.71 551.748 452.828C550.412 460.376 547.527 458.405 548.157 450.376C548.849 441.581 544.934 441.953 542.531 450.91C535.568 476.859 521.805 494.795 505.511 499.155C492.48 502.642 479.675 495.012 469.551 477.731C464.723 469.485 459.396 451.068 459.396 442.611C459.396 436.92 457.409 432.901 454.596 432.901C452.79 432.901 453.252 444.581 455.427 453.912C457.002 460.665 456.996 462.849 455.396 465.918C454.32 467.982 453.431 470.919 453.419 472.445C453.407 473.971 452.285 477.564 450.926 480.429C447.582 487.478 445.88 484.436 446.163 471.921L446.385 462.166L447.266 470.383C448.125 478.403 448.191 478.501 450.021 474.44C452.357 469.257 452.588 453.307 450.306 454.718C449.253 455.369 448.911 453.613 449.292 449.517C449.61 446.117 449.045 436.47 448.038 428.08C447.03 419.689 446.546 411.944 446.958 410.866C448.044 408.036 450.126 409.838 452.592 415.744C454.764 420.947 457.53 422.469 458.54 419.018C462.033 407.084 466.304 397.95 468.83 397.015C471.731 395.941 473.747 396.182 494.097 400.045ZM497.421 412.687C496.158 415.981 499.707 418.1 503.282 416.186C506.814 414.294 505.925 411.288 501.647 410.659C499.656 410.366 498.008 411.156 497.421 412.687ZM465.396 417.786C461.135 421.243 463.271 422.07 467.735 418.691C474.279 413.737 487.559 417.572 491.849 425.653C493.455 428.68 494.825 435.512 495.323 442.984C496.01 453.265 496.509 455.094 498.323 453.966C501.279 452.126 501.002 433.379 497.93 427.472C493.539 419.026 488.886 416.117 478.625 415.405C470.717 414.854 468.525 415.248 465.396 417.786ZM518.861 416.434C513.593 418.014 509.285 421.793 506.408 427.36C503.88 432.249 502.829 454.038 505.146 453.505C505.971 453.316 506.43 450.371 506.165 446.962C504.572 426.414 521.489 410.793 534.396 420.894C538.311 423.959 543.396 424.882 543.396 422.529C543.396 420.485 530.99 414.872 526.797 415.02C524.789 415.091 521.217 415.727 518.861 416.434ZM464.496 427.142C463.397 428.921 466.046 429.554 478.068 430.382C483.801 430.779 487.514 430.561 486.318 429.899C482.802 427.954 465.356 425.748 464.496 427.142ZM518.271 428.577C515.589 429.351 513.396 430.641 513.396 431.443C513.396 433.358 517.457 433.325 518.646 431.4C519.156 430.574 522.869 429.899 526.896 429.899C530.924 429.899 534.636 429.224 535.146 428.398C536.31 426.513 524.999 426.633 518.271 428.577ZM462.396 432.995C462.396 435.317 471.779 440.393 476.084 440.399C482.153 440.408 489.396 438.676 489.396 437.215C489.396 436.494 486.527 435.895 483.021 435.886C479.516 435.877 473.441 434.897 469.521 433.707C465.425 432.462 462.396 432.161 462.396 432.995ZM530.27 434.628C529.275 435.623 524.537 436.255 519.095 436.12C507.836 435.836 509.76 438.233 522.026 439.767C530.207 440.789 537.222 438.979 540.53 434.99C541.955 433.274 541.347 432.901 537.129 432.901C534.306 432.901 531.219 433.678 530.27 434.628ZM406.136 469.603C408.333 475.343 411.501 481.968 413.177 484.322C414.852 486.676 415.802 489.024 415.287 489.539C414.059 490.768 405.843 482.874 393.83 468.92L384.138 457.664L392.142 456.076C398.969 454.721 400.293 454.83 401.144 456.826C401.693 458.112 403.94 463.862 406.136 469.603ZM624.021 457.068C628.493 458.753 628.28 461.089 622.931 469.038C617.483 477.133 599.114 496.651 597.995 495.532C597.551 495.087 598.5 492.126 600.107 488.951C602.97 483.285 608.478 466.287 610.157 457.932C610.937 454.047 611.405 453.784 615.827 454.746C618.477 455.323 622.164 456.367 624.021 457.068ZM487.95 459.098C485.697 461.815 487.148 464.417 490.914 464.417C492.477 464.417 495.369 465.153 497.342 466.053C502.839 468.558 514.146 465.924 514.146 462.139C514.146 460.526 512.964 458.978 511.521 458.699C509.985 458.404 508.896 459.106 508.896 460.395C508.896 463.562 504.839 464.668 497.34 463.542C491.82 462.714 490.946 462.124 491.702 459.738C492.765 456.388 490.517 456.004 487.95 459.098ZM551.505 466.293C549.771 478.627 549.087 480.926 547.149 480.926C544.385 480.926 541.538 470.758 543.407 467.56C544.52 465.655 544.814 465.99 544.851 469.206C544.875 471.427 545.571 473.662 546.396 474.172C547.221 474.683 547.896 474.091 547.896 472.858C547.896 470.333 550.511 462.917 551.402 462.917C551.72 462.917 551.766 464.435 551.505 466.293ZM387.396 476.88C412.586 504.982 442.433 525.619 485.247 544.54C492.452 547.723 498.054 550.803 497.696 551.382C496.419 553.45 440.075 556.714 407.646 556.599C365.732 556.449 313.889 550.746 313.901 546.285C313.902 545.418 316.265 540.793 319.151 536.005C322.035 531.217 324.396 526.946 324.396 526.514C324.396 523.99 346.724 493.621 354.687 485.317C363.429 476.198 375.126 466.031 376.896 466.011C377.309 466.007 382.034 470.896 387.396 476.88ZM644.961 468.9C652.703 474.993 662.838 484.881 668.057 491.431C682.709 509.827 699.824 539.788 697.067 542.22C694.649 544.354 655.436 551.742 630.396 554.781C612.645 556.936 548.832 557.384 535.25 555.448L526.353 554.181L538.25 548.943C544.793 546.063 555.546 540.188 562.146 535.886C568.746 531.585 577.859 525.657 582.396 522.711C600.396 511.024 629.273 482.236 636.449 468.822C638.414 465.148 640.217 465.165 644.961 468.9ZM488.271 473.887C483.486 475.33 481.568 477.924 485.285 477.924C486.324 477.924 488.018 479.275 489.048 480.926C490.079 482.577 492.057 483.928 493.446 483.928C495.638 483.928 495.587 483.633 493.058 481.693C490.388 479.643 490.862 479.487 498.761 479.817C507.537 480.182 511.092 482.427 502.896 482.427C500.421 482.427 498.396 483.102 498.396 483.928C498.396 486.769 508.799 485.575 511.494 482.427C512.907 480.776 515.262 479.425 516.729 479.425C518.196 479.425 519.396 478.673 519.396 477.753C519.396 476.647 517.245 476.388 513.021 476.986C509.516 477.483 503.271 477.302 499.146 476.583L491.646 475.275L499.146 474.921C503.271 474.726 507.659 474.711 508.896 474.888C510.134 475.064 510.603 474.657 509.939 473.983C508.203 472.221 494.007 472.158 488.271 473.887ZM708.333 567.062C720.599 603.979 727.878 648.948 727.89 687.873L727.896 709.471L709.521 708.443C654.635 705.368 606.36 688.569 568.896 659.508C560.28 652.825 543.98 636.67 540.798 631.662C539.783 630.062 537.35 626.336 535.392 623.381C528.78 613.401 522.333 600.708 519.302 591.704C516.08 582.135 511.841 561.816 512.753 560.312C513.054 559.813 517.205 560.124 521.975 561.001C526.964 561.918 551.025 562.576 578.646 562.554C620.336 562.518 629.21 562.093 646.146 559.324C672.251 555.056 690.179 551.73 695.646 550.142C701.528 548.435 702.635 549.913 708.333 567.062ZM333.396 558.298C360.509 562.488 408.507 564.155 443.391 562.12C460.857 561.101 480.366 559.399 486.746 558.34C493.124 557.28 498.651 556.722 499.028 557.097C500.063 558.133 498.393 573.409 495.96 585.189C492.416 602.337 477.734 626.507 462.197 640.769C426.579 673.464 388.565 692.479 331.146 706.321C315.195 710.166 290.435 713.316 288.053 711.803C287.004 711.138 286.589 710.583 287.129 710.569C287.669 710.557 287.081 706.664 285.819 701.917C284.297 696.183 283.514 686.24 283.488 672.277C283.419 636.255 291.843 596.227 307.136 559.923C309.416 554.51 309.894 554.192 314.363 555.112C316.994 555.653 325.559 557.088 333.396 558.298Z" fill="#D7C89D"/>
<path d="M299.707 818.764C301.432 818.764 303.125 818.553 304.785 818.13C306.478 817.674 307.975 817.023 309.277 816.176C310.612 815.297 311.686 814.24 312.5 813.003C313.314 811.733 313.721 810.268 313.721 808.608C313.721 806.818 313.249 805.19 312.305 803.725C311.361 802.26 310.107 800.909 308.545 799.672C306.982 798.403 305.176 797.215 303.125 796.108C301.107 794.969 299.023 793.846 296.875 792.739C294.596 791.567 292.334 790.363 290.088 789.126C287.874 787.856 285.872 786.44 284.082 784.878C282.324 783.283 280.892 781.492 279.785 779.506C278.711 777.488 278.174 775.144 278.174 772.475C278.174 770.001 278.613 767.706 279.492 765.59C280.371 763.475 281.657 761.652 283.35 760.122C285.075 758.559 287.191 757.339 289.697 756.46C292.204 755.581 295.068 755.141 298.291 755.141C301.188 755.141 303.776 755.467 306.055 756.118C308.366 756.769 310.384 757.745 312.109 759.047C313.867 760.317 315.365 761.896 316.602 763.784C317.839 765.672 318.864 767.853 319.678 770.327L315.771 772.133C315.153 770.245 314.323 768.52 313.281 766.958C312.272 765.363 311.035 764.012 309.57 762.905C308.105 761.766 306.396 760.887 304.443 760.268C302.49 759.65 300.277 759.34 297.803 759.34C295.589 759.34 293.652 759.633 291.992 760.219C290.332 760.773 288.949 761.521 287.842 762.465C286.768 763.377 285.954 764.419 285.4 765.59C284.847 766.73 284.57 767.902 284.57 769.106C284.57 770.571 285.042 771.971 285.986 773.305C286.963 774.607 288.232 775.861 289.795 777.065C291.39 778.269 293.197 779.441 295.215 780.581C297.233 781.687 299.3 782.794 301.416 783.901C303.76 785.105 306.104 786.391 308.447 787.758C310.791 789.093 312.907 790.59 314.795 792.251C316.683 793.878 318.213 795.685 319.385 797.671C320.589 799.624 321.191 801.821 321.191 804.262C321.191 806.834 320.719 809.259 319.775 811.538C318.831 813.784 317.432 815.753 315.576 817.446C313.721 819.106 311.393 820.424 308.594 821.401C305.827 822.378 302.604 822.866 298.926 822.866C295.996 822.866 293.359 822.524 291.016 821.84C288.672 821.157 286.589 820.164 284.766 818.862C282.975 817.527 281.429 815.916 280.127 814.028C278.857 812.107 277.783 809.926 276.904 807.485L281.055 805.776C281.706 807.827 282.617 809.65 283.789 811.245C284.993 812.84 286.393 814.207 287.988 815.346C289.583 816.453 291.374 817.299 293.359 817.885C295.345 818.471 297.461 818.764 299.707 818.764ZM381.348 756.606V760.805H347.217V783.95H370.068V788.149H347.217V817.153H381.348V821.352H338.281V756.606H381.348ZM396.094 756.606H417.578C421.289 756.606 424.544 757.029 427.344 757.876C430.176 758.689 432.52 759.845 434.375 761.342C436.263 762.84 437.679 764.63 438.623 766.714C439.567 768.764 440.039 771.01 440.039 773.452C440.039 775.503 439.665 777.423 438.916 779.214C438.2 780.971 437.158 782.566 435.791 783.999C434.424 785.398 432.78 786.603 430.859 787.612C428.939 788.621 426.79 789.402 424.414 789.956L447.998 821.352H436.914L414.404 790.932H405.029V821.352H396.094V756.606ZM405.029 787.661H412.305C414.876 787.661 417.253 787.335 419.434 786.684C421.647 786.033 423.551 785.122 425.146 783.95C426.742 782.745 427.979 781.297 428.857 779.604C429.769 777.911 430.225 776.007 430.225 773.891C430.225 771.938 429.867 770.148 429.15 768.52C428.434 766.893 427.425 765.509 426.123 764.37C424.821 763.198 423.275 762.286 421.484 761.635C419.694 760.984 417.725 760.659 415.576 760.659H405.029V787.661ZM501.66 756.606V760.805H467.529V783.95H490.381V788.149H467.529V817.153H501.66V821.352H458.594V756.606H501.66ZM515.43 756.606H520.801L564.453 805.239V756.606H569.238V822.671H566.797L520.361 769.399V821.352H515.43V756.606ZM587.793 756.606H596.729V821.352H587.793V756.606ZM665.234 756.606V760.805H641.797V821.352H632.861V760.805H609.424V756.606H665.234ZM678.467 756.606L701.367 790.102L724.121 756.606H729.883L703.955 794.79V821.352H695.02V794.399L668.994 756.606H678.467Z" fill="#D7C89D"/>
<path d="M404.594 848.562L420.688 881.844L435.406 848.562H438.656L419.906 890.906L418.594 890.969L398.375 848.562H404.594ZM445.062 848.562H450.781V890H445.062V848.562ZM463.312 848.562H469.031V887.312H489.906V890H463.312V848.562ZM497.375 848.562H503.094V887.312H523.969V890H497.375V848.562ZM546.469 847.625L565.969 890H560L553.688 876.188H535.344L528.875 890H525.5L545.312 847.625H546.469ZM536.625 873.5H552.406L544.469 856.656L536.625 873.5ZM585.875 888.344C586.979 888.344 588.062 888.208 589.125 887.938C590.208 887.646 591.167 887.229 592 886.688C592.854 886.125 593.542 885.448 594.062 884.656C594.583 883.844 594.844 882.906 594.844 881.844C594.844 880.698 594.542 879.656 593.938 878.719C593.333 877.781 592.531 876.917 591.531 876.125C590.531 875.312 589.375 874.552 588.062 873.844C586.771 873.115 585.438 872.396 584.062 871.688C582.604 870.938 581.156 870.167 579.719 869.375C578.302 868.562 577.021 867.656 575.875 866.656C574.75 865.635 573.833 864.49 573.125 863.219C572.438 861.927 572.094 860.427 572.094 858.719C572.094 857.135 572.375 855.667 572.938 854.312C573.5 852.958 574.323 851.792 575.406 850.812C576.51 849.812 577.865 849.031 579.469 848.469C581.073 847.906 582.906 847.625 584.969 847.625C586.823 847.625 588.479 847.833 589.938 848.25C591.417 848.667 592.708 849.292 593.812 850.125C594.938 850.938 595.896 851.948 596.688 853.156C597.479 854.365 598.135 855.76 598.656 857.344L596.156 858.5C595.76 857.292 595.229 856.188 594.562 855.188C593.917 854.167 593.125 853.302 592.188 852.594C591.25 851.865 590.156 851.302 588.906 850.906C587.656 850.51 586.24 850.312 584.656 850.312C583.24 850.312 582 850.5 580.938 850.875C579.875 851.229 578.99 851.708 578.281 852.312C577.594 852.896 577.073 853.562 576.719 854.312C576.365 855.042 576.188 855.792 576.188 856.562C576.188 857.5 576.49 858.396 577.094 859.25C577.719 860.083 578.531 860.885 579.531 861.656C580.552 862.427 581.708 863.177 583 863.906C584.292 864.615 585.615 865.323 586.969 866.031C588.469 866.802 589.969 867.625 591.469 868.5C592.969 869.354 594.323 870.312 595.531 871.375C596.74 872.417 597.719 873.573 598.469 874.844C599.24 876.094 599.625 877.5 599.625 879.062C599.625 880.708 599.323 882.26 598.719 883.719C598.115 885.156 597.219 886.417 596.031 887.5C594.844 888.562 593.354 889.406 591.562 890.031C589.792 890.656 587.729 890.969 585.375 890.969C583.5 890.969 581.812 890.75 580.312 890.312C578.812 889.875 577.479 889.24 576.312 888.406C575.167 887.552 574.177 886.521 573.344 885.312C572.531 884.083 571.844 882.688 571.281 881.125L573.938 880.031C574.354 881.344 574.938 882.51 575.688 883.531C576.458 884.552 577.354 885.427 578.375 886.156C579.396 886.865 580.542 887.406 581.812 887.781C583.083 888.156 584.438 888.344 585.875 888.344Z" fill="#D7C89D"/>
</g>
<defs>
<clipPath id="clip0_1_8">
<rect width="1000" height="1000" fill="white"/>
</clipPath>
</defs>
</svg>
