<svg viewBox="0 0 1173 400" xmlns="http://www.w3.org/2000/svg">
  <g transform="scale(1.0811) translate(-297 -309)" fill="#E1D3BE">
    <path d="M423.143 386H636.571V437.429H400L423.143 386Z"/>
    <path d="M387.143 468.286H636.571V519.714H364L387.143 468.286Z"/>
    <path d="M351.143 550.572H636.571V602H328L351.143 550.572Z"/>
  </g>
  <path d="M584.25 264.81L584.25 196.54L633.54 196.54L633.54 291.12Q614.55 305.43 589.58 313.09Q564.60 320.75 539.30 320.75Q503 320.75 474.03 305.27Q445.06 289.78 428.57 262.31Q412.09 234.84 412.09 200.21Q412.09 165.57 428.57 138.10Q445.06 110.63 474.36 95.15Q503.67 79.66 540.30 79.66Q570.93 79.66 595.91 89.98Q620.88 100.31 637.86 119.95L603.23 151.92Q578.26 125.61 542.96 125.61Q520.65 125.61 503.33 134.94Q486.02 144.26 476.36 161.25Q466.70 178.23 466.70 200.21Q466.70 221.85 476.36 238.83Q486.02 255.82 503.17 265.31Q520.32 274.80 542.29 274.80Q565.60 274.80 584.25 264.81M854.65 195.54Q874.63 201.87 885.95 216.69Q897.27 231.51 897.27 253.15Q897.27 283.79 873.46 300.27Q849.65 316.76 804.03 316.76L683.49 316.76L683.49 83.66L797.37 83.66Q840 83.66 862.81 99.97Q885.62 116.29 885.62 144.26Q885.62 161.25 877.46 174.57Q869.30 187.89 854.65 195.54M790.71 124.28L737.10 124.28L737.10 179.23L790.71 179.23Q810.69 179.23 821.01 172.23Q831.34 165.24 831.34 151.59Q831.34 137.94 821.01 131.11Q810.69 124.28 790.71 124.28M800.04 276.13Q821.35 276.13 832.17 269.14Q842.99 262.14 842.99 247.49Q842.99 218.52 800.04 218.52L737.10 218.52L737.10 276.13L800.04 276.13M1098.07 83.66L1152.02 83.66L1152.02 316.76L1098.07 316.76L1098.07 221.19L992.18 221.19L992.18 316.76L938.23 316.76L938.23 83.66L992.18 83.66L992.18 175.56L1098.07 175.56" fill="#E1D3BE"/>
</svg>
