<svg width="1000" height="1000" viewBox="0 0 1000 1000" fill="none" xmlns="http://www.w3.org/2000/svg">
<g clip-path="url(#clip0_43_2)">
<path d="M423.143 386H636.571V437.429H400L423.143 386Z" fill="black"/>
<path d="M387.143 468.286H636.571V519.714H364L387.143 468.286Z" fill="black"/>
<path d="M351.143 550.572H636.571V602H328L351.143 550.572Z" fill="black"/>
<path fill-rule="evenodd" clip-rule="evenodd" d="M882.5 529.25C883.071 529.25 883.592 529.574 883.845 530.086L889.29 541.117L901.467 542.897C902.032 542.98 902.501 543.376 902.677 543.919C902.853 544.462 902.706 545.057 902.297 545.456L893.487 554.037L895.566 566.159C895.662 566.722 895.431 567.29 894.969 567.626C894.507 567.962 893.895 568.006 893.389 567.74L882.5 562.014L871.611 567.74C871.105 568.006 870.493 567.962 870.031 567.626C869.569 567.29 869.338 566.722 869.434 566.159L871.513 554.037L862.703 545.456C862.295 545.057 862.147 544.462 862.323 543.919C862.499 543.376 862.968 542.98 863.533 542.897L875.71 541.117L881.155 530.086C881.408 529.574 881.929 529.25 882.5 529.25Z" fill="black"/>
<path fill-rule="evenodd" clip-rule="evenodd" d="M118.5 529.25C119.071 529.25 119.592 529.574 119.845 530.086L125.29 541.117L137.467 542.897C138.032 542.98 138.501 543.376 138.677 543.919C138.853 544.462 138.706 545.057 138.297 545.456L129.487 554.037L131.566 566.159C131.662 566.722 131.431 567.29 130.969 567.626C130.507 567.962 129.895 568.006 129.389 567.74L118.5 562.014L107.611 567.74C107.105 568.006 106.493 567.962 106.031 567.626C105.569 567.29 105.338 566.722 105.434 566.159L107.513 554.037L98.7034 545.456C98.2945 545.057 98.1471 544.462 98.3232 543.919C98.4992 543.376 98.9683 542.98 99.5331 542.897L111.71 541.117L117.155 530.086C117.408 529.574 117.929 529.25 118.5 529.25Z" fill="black"/>
<circle cx="500" cy="499" r="473.5" stroke="black" stroke-width="3"/>
<circle cx="500" cy="500" r="298.5" stroke="black" stroke-width="3"/>
<path d="M134.25 431.757L156.622 436.647L153.717 449.934L88.5559 435.691L94.5777 408.141C96.2148 400.651 99.222 395.167 103.599 391.688C107.976 388.209 113.682 387.238 120.716 388.776C127.75 390.313 132.693 393.612 135.545 398.671C138.397 403.73 139.005 410.004 137.367 417.494L134.25 431.757ZM123.601 429.43L126.356 416.827C126.84 414.613 126.985 412.7 126.791 411.088C126.533 409.462 126.007 408.119 125.216 407.058C124.359 405.984 123.347 405.149 122.181 404.553C121.029 403.891 119.736 403.404 118.303 403.091C116.805 402.763 115.362 402.653 113.974 402.759C112.601 402.8 111.3 403.13 110.073 403.749C108.846 404.367 107.808 405.369 106.96 406.753C106.046 408.123 105.347 409.915 104.863 412.129L102.109 424.732L123.601 429.43Z" fill="black"/>
<path d="M172.36 379.66L120.417 359.276L113.038 378.08L102.891 374.098L122.654 323.737L132.801 327.719L125.385 346.616L177.329 367L172.36 379.66Z" fill="black"/>
<path d="M187.861 343.919L176.452 337.897L182.614 326.224L194.022 332.245L187.861 343.919Z" fill="black"/>
<path d="M229.432 281.762C225.259 286.961 220.735 290.681 215.859 292.922C210.983 295.164 205.755 295.713 200.176 294.569C194.587 293.332 188.647 290.188 182.356 285.139C176.169 280.174 171.893 275.117 169.527 269.97C167.151 264.73 166.503 259.466 167.584 254.178C168.664 248.891 171.27 243.673 175.401 238.526C177.947 235.355 180.767 232.532 183.864 230.059C186.908 227.544 190.133 225.389 193.541 223.593L203.367 231.48C199.523 233.181 196.048 235.008 192.942 236.961C189.878 238.861 187.219 241.215 184.966 244.023C182.254 247.402 180.557 250.742 179.875 254.041C179.235 257.289 179.786 260.595 181.53 263.961C183.316 267.275 186.47 270.747 190.994 274.377C195.465 277.965 199.558 280.268 203.274 281.283C206.937 282.257 210.29 282.127 213.332 280.893C216.364 279.565 219.132 277.341 221.635 274.222C222.971 272.558 224.098 270.941 225.016 269.37C225.925 267.706 226.62 266.041 227.101 264.376L216.261 255.676L208.437 265.424L199.936 258.602L216.21 238.325L240.386 257.728C239.547 262.183 238.212 266.455 236.384 270.544C234.545 274.539 232.228 278.278 229.432 281.762Z" fill="black"/>
<path d="M252.378 253.55L207.853 203.886L217.98 194.808L255.161 236.281L277.796 215.988L285.139 224.178L252.378 253.55Z" fill="black"/>
<path d="M313.033 206.894C307.465 210.437 302.021 212.439 296.704 212.898C291.35 213.302 286.245 212.046 281.388 209.131C276.495 206.16 271.955 201.385 267.767 194.804C261.648 185.186 259.337 176.462 260.836 168.634C262.355 160.714 267.389 154.034 275.939 148.595C281.563 145.016 287.053 143.025 292.406 142.621C297.759 142.217 302.865 143.473 307.722 146.388C312.635 149.267 317.204 154.025 321.427 160.662C327.511 170.224 329.793 178.965 328.274 186.885C326.775 194.713 321.695 201.383 313.033 206.894ZM306.967 197.36C310.342 195.213 312.714 192.795 314.085 190.105C315.476 187.324 315.821 184.141 315.121 180.557C314.421 176.972 312.567 172.818 309.561 168.093C306.555 163.368 303.595 159.958 300.68 157.861C297.73 155.708 294.719 154.701 291.646 154.839C288.629 154.941 285.433 156.065 282.059 158.213C278.796 160.288 276.47 162.717 275.079 165.498C273.708 168.188 273.373 171.325 274.073 174.909C274.738 178.437 276.573 182.564 279.579 187.288C282.585 192.013 285.564 195.452 288.514 197.605C291.464 199.757 294.447 200.783 297.464 200.681C300.537 200.543 303.705 199.436 306.967 197.36Z" fill="black"/>
<path d="M344.938 186.326L319.877 124.513L344.435 114.556C349.192 112.627 353.44 111.66 357.179 111.655C360.892 111.588 364.097 112.483 366.792 114.34C369.462 116.135 371.561 118.917 373.089 122.685C374.191 125.404 374.475 127.878 373.941 130.109C373.468 132.315 372.58 134.294 371.276 136.045C370.009 137.71 368.784 139.214 367.602 140.556L365.16 138.525C368.102 137.62 371.01 137.34 373.883 137.686C376.794 137.945 379.41 138.898 381.733 140.546C384.056 142.194 385.869 144.624 387.171 147.837C388.9 152.1 389.295 156.004 388.359 159.549C387.484 163.069 385.58 166.179 382.646 168.879C379.749 171.492 376.138 173.676 371.813 175.429L344.938 186.326ZM353.484 171.207L367.107 165.684C368.96 164.932 370.59 163.984 371.996 162.838C373.402 161.693 374.336 160.271 374.798 158.572C375.261 156.874 375.029 154.882 374.102 152.596C373.375 150.805 372.49 149.509 371.447 148.709C370.378 147.848 369.206 147.352 367.93 147.221C366.629 147.029 365.293 147.104 363.92 147.444C362.584 147.698 361.237 148.101 359.877 148.652L346.533 154.063L353.484 171.207ZM342.625 144.425L355.599 139.164C356.897 138.638 358.088 137.939 359.173 137.068C360.234 136.134 360.934 135.023 361.275 133.734C361.652 132.358 361.465 130.743 360.713 128.89C359.486 125.862 357.813 124.131 355.694 123.695C353.575 123.259 351.218 123.568 348.623 124.62L336.576 129.504L342.625 144.425Z" fill="black"/>
<path d="M394.158 165.779L405.194 95.1926L419.567 92.1084L457.418 152.204L443.73 155.142L409.386 98.9979L415.147 97.2501L406.967 163.031L394.158 165.779ZM403.938 147.01L404.885 136.17L435.292 129.644L438.55 139.582L403.938 147.01Z" fill="black"/>
<path d="M462.922 152.438L459.577 85.8215L473.16 85.1396L475.953 140.77L506.315 139.245L506.867 150.231L462.922 152.438Z" fill="black"/>
<path d="M533.665 151.533L544.907 85.7873L571.028 90.2535C576.088 91.1187 580.208 92.5334 583.389 94.4976C586.582 96.3961 588.835 98.8442 590.148 101.842C591.473 104.774 591.793 108.244 591.107 112.252C590.613 115.144 589.551 117.397 587.923 119.012C586.359 120.639 584.562 121.853 582.531 122.656C580.577 123.404 578.744 124.037 577.032 124.556L576.026 121.543C579.004 122.323 581.623 123.616 583.884 125.423C586.222 127.176 587.945 129.364 589.052 131.988C590.159 134.612 590.42 137.633 589.836 141.05C589.06 145.584 587.341 149.112 584.678 151.632C582.081 154.164 578.825 155.805 574.909 156.556C571.07 157.252 566.851 157.207 562.251 156.421L533.665 151.533ZM548.891 143.18L563.381 145.657C565.352 145.994 567.237 146.046 569.036 145.813C570.834 145.579 572.377 144.862 573.664 143.662C574.952 142.462 575.803 140.646 576.219 138.214C576.545 136.309 576.475 134.741 576.008 133.512C575.554 132.217 574.818 131.178 573.802 130.395C572.797 129.547 571.622 128.907 570.276 128.473C569.006 127.986 567.649 127.619 566.203 127.371L552.009 124.944L548.891 143.18ZM553.762 114.693L567.562 117.053C568.941 117.289 570.322 117.322 571.704 117.152C573.097 116.917 574.278 116.341 575.246 115.424C576.291 114.453 576.982 112.982 577.319 111.011C577.87 107.791 577.359 105.438 575.787 103.952C574.215 102.465 572.049 101.486 569.289 101.014L556.475 98.8235L553.762 114.693Z" fill="black"/>
<path d="M587.049 160.143L633.641 105.982L647.481 110.939L647.96 181.96L634.78 177.24L635.197 111.426L641.014 112.978L599.382 164.561L587.049 160.143ZM605.255 149.35L611.775 140.638L641.053 151.125L638.582 161.287L605.255 149.35Z" fill="black"/>
<path d="M651.175 184.384L683.392 125.981L695.3 132.55L668.396 181.322L695.015 196.005L689.702 205.637L651.175 184.384Z" fill="black"/>
<path d="M696.096 210.731L734.54 156.224L745.654 164.062L707.21 218.569L696.096 210.731Z" fill="black"/>
<path d="M732.696 237.79L780.709 191.491L790.149 201.28L770.066 220.647L789.294 240.586L809.377 221.22L818.748 230.938L770.735 277.237L761.364 267.519L781.159 248.43L761.932 228.491L742.136 247.58L732.696 237.79Z" fill="black"/>
<path d="M791.644 309.244C788.02 303.728 785.939 298.315 785.401 293.005C784.919 287.658 786.099 282.535 788.943 277.635C791.841 272.699 796.55 268.089 803.069 263.806C812.596 257.546 821.285 255.108 829.134 256.491C837.075 257.894 843.828 262.83 849.393 271.299C853.054 276.87 855.125 282.329 855.607 287.676C856.09 293.023 854.909 298.147 852.066 303.046C849.259 308.001 844.569 312.639 837.994 316.959C828.522 323.182 819.816 325.593 811.874 324.19C804.025 322.806 797.282 317.824 791.644 309.244ZM801.088 303.039C803.284 306.382 805.737 308.719 808.446 310.049C811.248 311.399 814.435 311.698 818.009 310.945C821.583 310.193 825.71 308.279 830.39 305.203C835.07 302.128 838.437 299.118 840.49 296.174C842.6 293.192 843.563 290.166 843.38 287.096C843.234 284.081 842.062 280.902 839.866 277.559C837.742 274.327 835.28 272.037 832.478 270.687C829.769 269.356 826.628 269.067 823.054 269.819C819.536 270.535 815.437 272.431 810.757 275.506C806.077 278.581 802.682 281.61 800.573 284.591C798.464 287.573 797.482 290.571 797.628 293.586C797.811 296.656 798.964 299.807 801.088 303.039Z" fill="black"/>
<path d="M812.96 340.061L874.958 315.462L880.121 328.475L857.519 362.617L854.122 355.681L894.946 365.842L899.962 378.483L837.964 403.082L832.985 390.533L884.945 369.918L882.742 374.127L843.459 363.785L865.317 329.938L869.1 331.88L817.791 352.237L812.96 340.061Z" fill="black"/>
<path d="M838.963 410.179L904.384 397.182L913.095 441.025L902.403 443.149L896.343 412.645L879.767 415.938L885.028 442.421L874.239 444.564L868.978 418.082L852.304 421.394L858.364 451.898L847.673 454.022L838.963 410.179Z" fill="black"/>
<path d="M142.261 690.215L149.098 681.82L194.567 688.444L203.047 703.294L142.261 690.215ZM118.149 689.129L176.071 656.053L182.815 667.864L124.893 700.939L118.149 689.129ZM166.15 692.12L146.167 738.193L137.588 723.17L153.388 687.316L166.15 692.12Z" fill="black"/>
<path d="M169.551 770.352C167.767 768.194 166.273 765.969 165.07 763.677C163.867 761.385 163.091 759.086 162.741 756.78C162.443 754.431 162.733 752.115 163.613 749.831C164.586 747.555 166.332 745.377 168.849 743.295C171.47 741.129 174.125 739.842 176.815 739.434C179.557 738.983 182.24 739.403 184.864 740.694C187.582 741.993 190.194 744.159 192.701 747.19C194.23 749.04 195.473 750.91 196.43 752.8C197.439 754.648 198.192 756.447 198.689 758.199C199.185 759.951 199.44 761.514 199.451 762.888L194.553 768.106C194.38 766.432 193.798 764.578 192.808 762.542C191.911 760.516 190.655 758.526 189.041 756.574C186.789 753.851 184.675 752.183 182.697 751.569C180.719 750.955 178.805 751.413 176.955 752.942C175.671 754.004 174.889 755.256 174.61 756.698C174.383 758.097 174.506 759.552 174.978 761.065C175.501 762.535 176.273 763.887 177.292 765.12C179.629 767.946 181.487 769.827 182.866 770.762C184.339 771.707 185.718 771.648 187.002 770.586L202.339 757.906C204.856 755.824 206.022 753.52 205.835 750.992C205.7 748.423 204.443 745.699 202.064 742.822C200.238 740.613 197.983 738.671 195.301 736.996C192.67 735.278 190.169 734.189 187.798 733.727L196.66 726.399C198.681 727.064 201.172 728.508 204.134 730.73C207.096 732.953 209.894 735.656 212.527 738.842C213.632 740.178 214.672 741.697 215.647 743.399C216.622 745.102 217.379 746.855 217.918 748.658C218.5 750.512 218.745 752.429 218.652 754.409C218.61 756.347 218.094 758.287 217.105 760.229C216.168 762.129 214.62 763.971 212.462 765.755L194.042 780.985C191.628 782.981 189.089 783.782 186.428 783.388C183.817 782.951 181.13 781.583 178.364 779.285C175.548 777.029 172.61 774.052 169.551 770.352Z" fill="black"/>
<path d="M219.115 821.683C217.003 819.844 215.051 817.924 213.258 815.921C211.516 813.963 210.125 811.956 209.085 809.902C208.14 807.841 207.714 805.791 207.81 803.753C207.905 801.714 208.784 799.74 210.448 797.829L249.189 753.33L258.617 761.538L240.691 782.128L241.205 777.273C242.949 777.2 244.765 777.499 246.654 778.172C248.544 778.844 250.327 779.69 252.004 780.708C253.775 781.719 255.163 782.663 256.169 783.539C261.851 788.485 264.636 793.916 264.525 799.83C264.509 805.738 261.765 811.834 256.293 818.119C252.791 822.142 249.352 825.026 245.976 826.771C242.694 828.51 239.491 829.346 236.368 829.279C233.244 829.211 230.242 828.497 227.36 827.137C224.478 825.777 221.729 823.959 219.115 821.683ZM225.839 813.35C228.454 815.627 230.95 816.872 233.327 817.085C235.704 817.299 237.961 816.788 240.096 815.554C242.232 814.319 244.285 812.571 246.254 810.308C248.75 807.442 250.408 804.776 251.23 802.309C252.052 799.842 252.131 797.568 251.467 795.488C250.847 793.357 249.506 791.394 247.445 789.6C246.288 788.593 244.875 787.627 243.204 786.703C241.584 785.823 239.936 785.228 238.261 784.919L221.977 803.623C221.145 804.579 220.815 805.617 220.987 806.74C221.253 807.855 221.827 808.973 222.708 810.094C223.639 811.258 224.682 812.343 225.839 813.35Z" fill="black"/>
<path d="M257.453 849.866L264.655 839.164L275.606 846.533L268.404 857.236L257.453 849.866Z" fill="black"/>
<path d="M317.228 885.553L342.058 823.647L366.653 833.513C371.418 835.424 375.148 837.674 377.844 840.264C380.565 842.792 382.252 845.659 382.906 848.866C383.583 852.012 383.166 855.471 381.652 859.246C380.56 861.968 379.047 863.947 377.115 865.184C375.244 866.445 373.232 867.254 371.078 867.61C369.01 867.93 367.085 868.164 365.302 868.311L364.952 865.154C367.699 866.543 369.988 868.358 371.818 870.601C373.734 872.806 374.958 875.308 375.487 878.106C376.017 880.905 375.636 883.913 374.346 887.13C372.634 891.4 370.21 894.486 367.077 896.39C364.005 898.318 360.475 899.237 356.489 899.146C352.59 899.019 348.474 898.086 344.143 896.349L317.228 885.553ZM333.871 880.593L347.514 886.065C349.37 886.809 351.202 887.257 353.009 887.407C354.817 887.557 356.476 887.181 357.987 886.279C359.498 885.377 360.713 883.781 361.631 881.492C362.351 879.697 362.612 878.15 362.415 876.85C362.243 875.488 361.743 874.318 360.915 873.339C360.111 872.298 359.097 871.424 357.872 870.718C356.734 869.974 355.484 869.329 354.123 868.783L340.758 863.422L333.871 880.593ZM344.629 853.77L357.623 858.981C358.922 859.503 360.265 859.826 361.652 859.951C363.063 860.014 364.338 859.7 365.478 859.007C366.704 858.278 367.689 856.986 368.434 855.129C369.65 852.097 369.646 849.69 368.422 847.906C367.198 846.122 365.287 844.709 362.688 843.666L350.623 838.827L344.629 853.77Z" fill="black"/>
<path d="M409.496 917.782C406.756 917.205 404.202 916.395 401.832 915.351C399.463 914.307 397.424 912.992 395.714 911.405C394.018 909.754 392.803 907.761 392.068 905.426C391.413 903.039 391.421 900.248 392.095 897.051C392.795 893.724 394.071 891.063 395.922 889.069C397.786 887.009 400.147 885.666 403.004 885.042C405.939 884.366 409.332 884.433 413.181 885.243C415.529 885.738 417.666 886.426 419.593 887.309C421.532 888.126 423.242 889.066 424.722 890.127C426.202 891.188 427.374 892.252 428.239 893.32L427.657 900.453C426.479 899.251 424.869 898.163 422.826 897.187C420.862 896.161 418.641 895.386 416.162 894.864C412.704 894.136 410.011 894.148 408.081 894.9C406.152 895.651 404.939 897.202 404.445 899.55C404.101 901.181 404.269 902.647 404.949 903.948C405.643 905.185 406.645 906.247 407.957 907.137C409.282 907.961 410.727 908.538 412.293 908.868C415.881 909.623 418.506 909.937 420.168 909.811C421.909 909.632 422.951 908.727 423.294 907.097L427.395 887.624C428.068 884.427 427.545 881.898 425.825 880.037C424.119 878.111 421.439 876.763 417.786 875.994C414.981 875.403 412.007 875.288 408.865 875.648C405.737 875.943 403.102 876.649 400.96 877.764L403.33 866.511C405.324 865.773 408.173 865.351 411.874 865.245C415.575 865.139 419.448 865.511 423.493 866.363C425.189 866.72 426.949 867.261 428.772 867.986C430.595 868.711 432.279 869.61 433.824 870.685C435.434 871.774 436.82 873.121 437.98 874.728C439.154 876.27 439.959 878.109 440.395 880.244C440.845 882.315 440.781 884.72 440.204 887.46L435.279 910.847C434.633 913.913 433.146 916.121 430.818 917.47C428.504 918.754 425.549 919.358 421.954 919.282C418.346 919.271 414.193 918.772 409.496 917.782Z" fill="black"/>
<path d="M481.896 927.101C478.433 926.954 475.153 926.414 472.056 925.482C468.96 924.55 466.255 923.034 463.942 920.934C461.629 918.834 459.848 915.989 458.599 912.399C457.417 908.812 456.942 904.288 457.174 898.826C457.516 890.767 459.751 884.49 463.879 879.994C468.007 875.499 474.067 873.421 482.06 873.76C483.193 873.808 484.652 874.004 486.439 874.346C488.226 874.689 490.038 875.233 491.875 875.979C493.781 876.66 495.405 877.697 496.747 879.088L493.78 882.966L494.977 854.791L507.466 855.322L504.941 914.768C504.844 917.033 504.095 918.969 502.692 920.578C501.356 922.189 499.565 923.514 497.318 924.553C495.075 925.526 492.61 926.222 489.923 926.641C487.236 927.061 484.561 927.214 481.896 927.101ZM482.754 916.328C485.485 916.444 487.764 916.207 489.591 915.617C491.484 915.03 492.457 914.104 492.511 912.839L493.598 887.262C492.169 886.334 490.631 885.634 488.983 885.164C487.334 884.694 485.744 884.426 484.212 884.361C481.148 884.231 478.593 884.689 476.547 885.737C474.504 886.718 472.931 888.386 471.83 890.741C470.732 893.03 470.105 896.006 469.95 899.669C469.814 902.867 470.095 905.681 470.792 908.113C471.49 910.545 472.774 912.501 474.647 913.982C476.588 915.399 479.291 916.181 482.754 916.328Z" fill="black"/>
<path d="M554.861 924.068C550.232 924.66 546.105 924.448 542.48 923.433C538.913 922.343 535.981 920.433 533.683 917.702C531.451 914.963 530.039 911.279 529.447 906.65L525.465 875.504L538.062 873.893L541.879 903.75C542.353 907.453 543.53 910.092 545.412 911.666C547.293 913.24 549.986 913.803 553.491 913.355C557.128 912.89 559.626 911.664 560.985 909.675C562.41 907.678 562.886 904.828 562.412 901.125L558.595 871.268L570.498 869.746L574.48 900.893C575.36 907.77 574.031 913.149 570.494 917.029C567.016 920.834 561.804 923.18 554.861 924.068Z" fill="black"/>
<path d="M588.21 870.379C589.355 869.334 590.756 868.212 592.412 867.012C594.068 865.812 595.913 864.659 597.946 863.554C599.96 862.385 602.012 861.343 604.104 860.429C606.239 859.432 608.296 858.633 610.273 858.032C614.739 856.676 618.622 856.158 621.925 856.478C625.272 856.716 628.066 857.887 630.308 859.993C632.595 862.016 634.359 865.068 635.599 869.151L645.365 901.3L633.31 904.962L624.182 874.918C623.814 873.706 623.306 872.607 622.657 871.619C621.99 870.568 621.147 869.744 620.13 869.147C619.093 868.487 617.837 868.137 616.362 868.097C614.867 867.994 613.067 868.262 610.962 868.901C609.368 869.386 607.79 870.039 606.228 870.862C604.666 871.685 603.389 872.526 602.396 873.385L613.79 910.892L601.639 914.584L588.21 870.379Z" fill="black"/>
<path d="M689.212 883.639C684.918 885.635 680.848 886.514 677.002 886.274C673.157 886.035 669.609 884.677 666.36 882.202C663.141 879.637 660.324 875.939 657.91 871.109C655.377 866.04 653.932 861.582 653.576 857.736C653.189 853.83 653.652 850.432 654.964 847.54C656.307 844.559 658.29 841.966 660.914 839.76C663.598 837.525 666.64 835.558 670.039 833.859C673.557 832.101 676.882 830.999 680.013 830.552C683.203 830.076 686.005 830.315 688.42 831.27C690.894 832.195 692.802 833.999 694.143 836.682L711.755 871.927C713.125 874.67 713.915 877.369 714.123 880.022C714.361 882.736 713.957 885.359 712.913 887.893C711.929 890.397 710.274 892.752 707.948 894.958C705.651 897.223 702.595 899.309 698.778 901.217C695.26 902.975 692.054 904.241 689.162 905.015C686.27 905.79 683.885 906.237 682.006 906.355L676.955 896.247C678.029 896.158 679.46 895.964 681.249 895.667C683.127 895.399 685.14 894.952 687.286 894.327C689.433 893.701 691.491 892.897 693.459 891.913C696.619 890.334 698.796 888.724 699.989 887.085C701.242 885.416 701.823 883.746 701.734 882.077C701.645 880.407 701.199 878.767 700.394 877.157L696.863 870.09L700.44 870.762C699.993 872.401 699.247 874.041 698.203 875.68C697.189 877.231 695.907 878.691 694.356 880.062C692.895 881.463 691.18 882.655 689.212 883.639ZM687.247 873.665C688.857 872.861 690.348 871.892 691.72 870.76C693.121 869.537 694.284 868.211 695.209 866.78L684.123 844.596C683.408 843.164 682.499 842.314 681.396 842.046C680.323 841.688 679.101 841.702 677.729 842.09C676.387 842.387 675.001 842.894 673.569 843.609C670.409 845.189 668.262 847.081 667.128 849.287C666.054 851.463 665.741 853.893 666.187 856.577C666.634 859.26 667.572 862.033 669.003 864.895C671.178 869.249 673.875 872.261 677.095 873.931C680.285 875.542 683.669 875.453 687.247 873.665Z" fill="black"/>
<path d="M758.535 839.892L714.921 789.428L734.97 772.1C738.854 768.743 742.565 766.461 746.104 765.253C749.598 763.995 752.92 763.812 756.069 764.703C759.175 765.544 762.057 767.502 764.716 770.579C766.635 772.798 767.699 775.05 767.911 777.334C768.173 779.575 767.969 781.734 767.298 783.812C766.633 785.796 765.957 787.614 765.27 789.265L762.304 788.128C764.799 786.324 767.462 785.124 770.294 784.527C773.133 783.835 775.918 783.896 778.647 784.71C781.376 785.523 783.874 787.241 786.141 789.864C789.149 793.344 790.78 796.913 791.033 800.571C791.337 804.185 790.535 807.743 788.626 811.243C786.723 814.649 784.007 817.878 780.476 820.93L758.535 839.892ZM761.762 822.828L772.884 813.216C774.398 811.909 775.636 810.486 776.598 808.949C777.561 807.412 777.988 805.766 777.88 804.009C777.771 802.252 776.911 800.441 775.298 798.574C774.033 797.112 772.779 796.169 771.533 795.748C770.244 795.276 768.975 795.183 767.725 795.471C766.432 795.707 765.19 796.208 764 796.972C762.817 797.642 761.67 798.456 760.561 799.415L749.666 808.831L761.762 822.828ZM742.865 800.963L753.458 791.808C754.517 790.893 755.42 789.848 756.167 788.674C756.871 787.449 757.177 786.171 757.084 784.841C756.999 783.417 756.302 781.948 754.995 780.435C752.859 777.963 750.717 776.862 748.571 777.131C746.424 777.4 744.292 778.45 742.173 780.281L732.338 788.782L742.865 800.963Z" fill="black"/>
<path d="M829.156 773.134C827.38 775.299 825.482 777.191 823.463 778.811C821.443 780.431 819.335 781.633 817.139 782.418C814.891 783.16 812.562 783.318 810.151 782.893C807.732 782.373 805.259 781.077 802.734 779.005C800.106 776.848 798.334 774.488 797.419 771.925C796.452 769.321 796.35 766.607 797.114 763.784C797.869 760.868 799.494 757.889 801.99 754.849C803.512 752.994 805.109 751.415 806.781 750.114C808.401 748.77 810.024 747.687 811.648 746.864C813.272 746.04 814.758 745.492 816.104 745.217L822.163 749.025C820.554 749.515 818.845 750.442 817.037 751.804C815.22 753.072 813.508 754.686 811.901 756.644C809.659 759.375 808.426 761.77 808.203 763.829C807.979 765.888 808.795 767.679 810.65 769.201C811.939 770.259 813.317 770.786 814.785 770.784C816.202 770.739 817.607 770.34 819.002 769.587C820.344 768.791 821.523 767.775 822.538 766.538C824.864 763.704 826.355 761.521 827.009 759.988C827.654 758.361 827.332 757.019 826.044 755.962L810.661 743.337C808.136 741.265 805.651 740.562 803.206 741.229C800.71 741.854 798.277 743.609 795.909 746.495C794.09 748.711 792.616 751.296 791.486 754.249C790.304 757.16 789.714 759.824 789.715 762.239L780.825 754.944C781.091 752.833 782.031 750.112 783.645 746.779C785.259 743.447 787.377 740.183 789.999 736.988C791.099 735.648 792.39 734.336 793.875 733.053C795.359 731.77 796.934 730.692 798.601 729.817C800.309 728.891 802.144 728.284 804.106 727.996C806.015 727.666 808.018 727.8 810.114 728.399C812.158 728.955 814.262 730.122 816.427 731.898L834.902 747.06C837.324 749.048 838.596 751.386 838.719 754.074C838.79 756.72 837.962 759.62 836.236 762.774C834.561 765.97 832.201 769.424 829.156 773.134Z" fill="black"/>
<path d="M863.15 723.262L856.386 733.893L797.833 696.638L804.597 686.007L863.15 723.262Z" fill="black"/>
<path d="M874.459 703.77L830.242 680.642L836.129 669.389L880.392 692.428L874.459 703.77ZM823.015 677.2L813.799 672.38L819.963 660.595L829.179 665.415L823.015 677.2Z" fill="black"/>
</g>
<defs>
<clipPath id="clip0_43_2">
<rect width="1000" height="1000" fill="white"/>
</clipPath>
</defs>
</svg>
